<svg xmlns="http://www.w3.org/2000/svg" viewBox="0 0 512 512"><path d="M412.864 176.032C397.92 102.016 333.088 48 256 48c-64.032 0-121.504 38.112-146.688 96.032C48.8 145.472 0 195.136 0 256c0 61.76 50.24 112 112 112h304c52.928 0 96-43.072 96-96 0-53.984-45.536-97.344-99.136-95.968z" fill="#90caf9"/><path d="M336 304c-1.408 0-2.784.032-4.128.096C317.632 248.288 267.008 208 208 208c-45.6 0-87.968 24.8-110.752 64H96c-52.928 0-96 43.072-96 96s43.072 96 96 96h240c44.128 0 80-35.872 80-80s-35.872-80-80-80z" fill="#e3f2fd"/></svg>