<svg xmlns="http://www.w3.org/2000/svg" viewBox="0 0 512 512"><circle cx="416" cy="96" r="96" fill="#ffc107"/><path d="M416 160c-1.024 0-2.048 0-3.136.032C397.952 86.016 333.088 32 256 32c-64.032 0-121.504 38.112-146.688 96.032C48.8 129.472 0 179.136 0 240c0 61.76 50.24 112 112 112h304c52.928 0 96-43.072 96-96s-43.072-96-96-96z" fill="#e3f2fd"/><g fill="#2196f3"><path d="M386.848 390.912C376.384 406.048 352 443.52 352 464c0 26.464 21.536 48 48 48s48-21.536 48-48c0-20.48-24.384-57.952-34.848-73.088-5.92-8.64-20.384-8.64-26.304 0zM242.848 390.912C232.352 406.048 208 443.52 208 464c0 26.464 21.536 48 48 48s48-21.536 48-48c0-20.48-24.352-57.952-34.848-73.088-5.952-8.64-20.352-8.64-26.304 0zM98.848 390.912C88.352 406.048 64 443.52 64 464c0 26.464 21.536 48 48 48s48-21.536 48-48c0-20.48-24.352-57.952-34.848-73.088-5.952-8.64-20.352-8.64-26.304 0z"/></g></svg>