<svg xmlns="http://www.w3.org/2000/svg" viewBox="0 0 512 512"><path d="M416 144c-1.024 0-2.048 0-3.136.032C397.952 70.016 333.088 16 256 16c-64.032 0-121.504 38.112-146.688 96.032C48.8 113.472 0 163.136 0 224c0 61.76 50.24 112 112 112h304c52.928 0 96-43.072 96-96s-43.072-96-96-96z" fill="#e3f2fd"/><g fill="#ffc107"><path d="M205.152 342.88A16.004 16.004 0 0 0 192 336h-32v-80a15.992 15.992 0 0 0-13.152-15.744c-7.552-1.28-15.136 2.88-17.856 10.112l-48 128c-1.856 4.896-1.152 10.432 1.824 14.752C85.856 397.44 90.752 400 96 400h32v80a15.992 15.992 0 0 0 13.152 15.744c.96.16 1.92.256 2.848.256 6.56 0 12.608-4.064 14.976-10.368l48-128a16.13 16.13 0 0 0-1.824-14.752zM429.152 342.88A16.004 16.004 0 0 0 416 336h-32v-80a15.992 15.992 0 0 0-13.152-15.744c-7.552-1.28-15.136 2.88-17.856 10.112l-48 128c-1.856 4.896-1.152 10.432 1.824 14.752 3.04 4.32 7.936 6.88 13.184 6.88h32v80a15.992 15.992 0 0 0 13.152 15.744c.96.16 1.92.256 2.848.256 6.56 0 12.608-4.064 14.976-10.368l48-128a16.13 16.13 0 0 0-1.824-14.752z"/></g></svg>