<svg xmlns="http://www.w3.org/2000/svg" viewBox="0 0 448.02 448.02"><g fill="#607d8b"><path d="M20.874 99.059l42.272-13.536c29.984-9.632 62.912-6.464 90.336 8.544 21.76 11.968 46.144 17.888 70.528 17.888s48.768-5.952 70.528-17.888c27.392-15.04 60.288-18.176 90.336-8.576l42.272 13.536c8.448 2.56 17.408-1.984 20.096-10.368 2.688-8.416-1.952-17.408-10.368-20.128L394.57 54.995c-38.336-12.224-80.384-8.224-115.424 11.008-34.016 18.624-76.256 18.624-110.272 0-35.072-19.2-77.152-23.2-115.456-10.976L11.146 68.563C2.698 71.283-1.942 80.275.778 88.691c2.656 8.352 11.584 12.896 20.096 10.368zM436.874 164.563l-42.304-13.536c-38.336-12.192-80.384-8.192-115.424 11.008-34.016 18.624-76.256 18.624-110.272 0-35.072-19.2-77.152-23.2-115.456-11.008l-42.272 13.536c-8.448 2.72-13.088 11.712-10.368 20.128 2.656 8.384 11.584 12.96 20.096 10.368l42.272-13.536c29.984-9.568 62.912-6.464 90.336 8.544 21.76 11.968 46.144 17.888 70.528 17.888s48.768-5.952 70.528-17.888c27.392-15.008 60.288-18.176 90.336-8.576l42.272 13.536c8.448 2.624 17.408-2.016 20.096-10.368 2.72-8.384-1.92-17.376-10.368-20.096zM436.874 260.563l-42.304-13.536c-38.336-12.192-80.384-8.192-115.424 11.008-34.016 18.624-76.256 18.624-110.272 0-35.072-19.2-77.152-23.2-115.456-11.008l-42.272 13.536C2.73 263.283-1.91 272.275.778 280.691c2.656 8.416 11.584 12.928 20.096 10.368l42.272-13.536c29.984-9.6 62.912-6.464 90.336 8.576 21.76 11.936 46.112 17.888 70.528 17.888s48.768-5.952 70.528-17.888c27.392-15.04 60.288-18.176 90.336-8.576l42.272 13.536c8.448 2.56 17.408-1.984 20.096-10.368 2.72-8.416-1.92-17.408-10.368-20.128zM436.874 356.563l-42.304-13.536c-38.336-12.224-80.384-8.192-115.424 11.008-34.016 18.624-76.256 18.624-110.272 0-35.072-19.2-77.152-23.232-115.456-11.008l-42.272 13.536C2.73 359.283-1.91 368.275.778 376.691c2.656 8.384 11.584 12.96 20.096 10.368l42.272-13.536c29.984-9.6 62.912-6.464 90.336 8.576 21.76 11.936 46.112 17.888 70.528 17.888s48.768-5.952 70.528-17.888c27.392-15.04 60.288-18.176 90.336-8.576l42.272 13.536c8.448 2.624 17.408-1.984 20.096-10.368 2.72-8.416-1.92-17.408-10.368-20.128z"/></g></svg>