<svg xmlns="http://www.w3.org/2000/svg" viewBox="0 0 512 512"><path d="M429.472 186.721a16.344 16.344 0 0 1-14.365-8.551 180.805 180.805 0 0 0-24.707-34.906 16.344 16.344 0 0 1-.386-21.457l68.872-82.067c5.801-6.915 16.11-7.817 23.026-2.014 58.89 49.413 25.921 146.884-51.996 148.988-.149.005-.297.007-.444.007z" fill="#277ea4"/><path d="M82.509 186.721c-.148 0-.295-.002-.443-.007C4.051 184.609-28.723 87.059 30.068 37.727c6.915-5.803 17.225-4.902 23.026 2.014l68.873 82.067c5.243 6.247 5.079 15.403-.386 21.457a180.978 180.978 0 0 0-24.708 34.906 16.345 16.345 0 0 1-14.364 8.55z" fill="#2c9dd0"/><path d="M255.99 478.098c-117.812 0-213.66-95.848-213.66-213.66 0-119.041 96.867-213.66 213.66-213.66 117.394 0 213.66 95.215 213.66 213.66 0 117.813-95.848 213.66-213.66 213.66z" fill="#6ccfe2"/><path d="M255.99 50.779v427.32c117.812 0 213.66-95.848 213.66-213.66 0-118.445-96.267-213.66-213.66-213.66z" fill="#58a4b3"/><path d="M255.99 403.391a16.346 16.346 0 0 1-13.314-6.863l-49.262-69.182c-6.542-9.187-2.014-22.093 8.815-25.194 22.031-6.308 37.417-26.745 37.417-49.698 0-9.026 7.318-16.344 16.344-16.344s16.344 7.318 16.344 16.344c0 22.954 15.386 43.391 37.417 49.698 10.842 3.105 15.347 16.017 8.815 25.193l-49.262 69.182a16.347 16.347 0 0 1-13.314 6.864z" fill="#f3b73f"/><path d="M309.752 302.152c-22.031-6.308-37.417-26.745-37.417-49.698 0-9.026-7.318-16.344-16.344-16.344v167.282a16.34 16.34 0 0 0 13.314-6.865l49.262-69.182c6.532-9.176 2.026-22.088-8.815-25.193z" fill="#e7a53b"/><path d="M324.026 168.074c-26.768 0-51.872 12.519-68.035 34.487-16.137-21.933-41.22-34.487-68.035-34.487-46.521 0-84.369 37.852-84.369 84.378 0 46.528 37.848 84.38 84.369 84.38a84.492 84.492 0 0 0 23.271-3.255c18.399-5.268 33.949-16.576 44.763-31.37 15.952 21.822 40.982 34.625 68.036 34.625 46.521 0 84.369-37.852 84.369-84.38-.001-46.526-37.847-84.378-84.369-84.378z" fill="#ffc843"/><path d="M324.026 168.074c-26.768 0-51.872 12.519-68.035 34.487v99.647c15.952 21.822 40.982 34.625 68.036 34.625 46.521 0 84.369-37.852 84.369-84.38-.002-46.527-37.848-84.379-84.37-84.379z" fill="#f3b73f"/><g fill="#4a5052"><circle cx="187.653" cy="252.452" r="21.621"/><circle cx="324.334" cy="252.452" r="21.621"/></g></svg>