<svg xmlns="http://www.w3.org/2000/svg" viewBox="0 0 512 512"><circle cx="256" cy="281.86" r="219.809" fill="#bfa993"/><path d="M475.809 281.86c0-121.398-98.412-219.809-219.808-219.809v439.618c121.396 0 219.808-98.411 219.808-219.809z" fill="#b29a7e"/><path fill="#f8e99b" d="M333.581 307.72l-77.58 77.579-77.579-77.579 25.86-103.44h103.439z"/><path fill="#f6e27d" d="M307.721 204.28h-51.72v181.019l77.58-77.579z"/><circle cx="139.63" cy="281.86" r="77.58" fill="#f8f8f9"/><circle cx="372.37" cy="281.86" r="77.58" fill="#ededed"/><path d="M512 33.054c-30.297-30.297-79.418-30.297-109.714 0L256 179.34 109.714 33.054C79.418 2.758 30.297 2.758 0 33.054l256 256 256-256z" fill="#ebe4dd"/><path d="M402.286 33.054L256 179.34v109.716l256-256c-30.296-30.298-79.417-30.298-109.714-.002z" fill="#d8ccbc"/><path d="M139.63 307.72h-.004c-14.257 0-25.856-11.601-25.856-25.86.005-14.262 11.606-25.86 25.86-25.86 14.259 0 25.86 11.601 25.86 25.86 0 14.259-11.6 25.86-25.86 25.86z" fill="#58575d"/><path d="M372.37 307.72h-.004c-14.257 0-25.856-11.601-25.856-25.86.005-14.262 11.606-25.86 25.86-25.86 14.259 0 25.86 11.601 25.86 25.86-.001 14.259-11.601 25.86-25.86 25.86z" fill="#454449"/></svg>