<svg xmlns="http://www.w3.org/2000/svg" viewBox="0 0 512 512"><path d="M512 256c0 63.519-23.134 121.647-61.45 166.39C403.602 477.236 333.866 512 256 512s-147.613-34.764-194.56-89.621C23.134 377.637 0 319.509 0 256c0-30.532 5.339-59.81 15.151-86.967 11.285-31.242 28.473-59.664 50.218-83.905C112.243 32.872 180.276 0 256 0c141.385 0 256 114.615 256 256z" fill="#095972"/><g fill="#f9e7ae"><path d="M454.239 238.513l-11.154-2.82a11.72 11.72 0 0 1-8.49-8.49l-2.82-11.154c-.728-2.879-4.818-2.879-5.545 0l-2.82 11.154a11.72 11.72 0 0 1-8.49 8.49l-11.154 2.82c-2.879.728-2.879 4.818 0 5.545l11.154 2.82a11.72 11.72 0 0 1 8.49 8.49l2.82 11.154c.728 2.879 4.818 2.879 5.545 0l2.82-11.154a11.72 11.72 0 0 1 8.49-8.49l11.154-2.82c2.879-.727 2.879-4.818 0-5.545zM319.399 34.985l-11.154-2.82a11.72 11.72 0 0 1-8.49-8.49l-2.82-11.154c-.728-2.879-4.818-2.879-5.545 0l-2.82 11.154a11.72 11.72 0 0 1-8.49 8.49l-11.154 2.82c-2.879.727-2.879 4.818 0 5.545l11.154 2.82a11.72 11.72 0 0 1 8.49 8.49l2.82 11.154c.728 2.879 4.818 2.879 5.545 0l2.82-11.154a11.72 11.72 0 0 1 8.49-8.49l11.154-2.82c2.879-.727 2.879-4.817 0-5.545zM499.16 298.072l-11.154-2.82a11.72 11.72 0 0 1-8.49-8.49l-2.82-11.154c-.728-2.879-4.818-2.879-5.545 0l-2.82 11.154a11.72 11.72 0 0 1-8.49 8.49l-11.154 2.82c-2.879.728-2.879 4.818 0 5.545l11.154 2.82a11.72 11.72 0 0 1 8.49 8.49l2.82 11.154c.728 2.879 4.818 2.879 5.545 0l2.82-11.154a11.72 11.72 0 0 1 8.49-8.49l11.154-2.82c2.879-.727 2.879-4.818 0-5.545zM73.157 290.627l-11.154-2.82a11.72 11.72 0 0 1-8.49-8.49l-2.82-11.154c-.727-2.879-4.818-2.879-5.545 0l-2.82 11.154a11.72 11.72 0 0 1-8.49 8.49l-11.154 2.82c-2.879.728-2.879 4.818 0 5.545l11.154 2.82a11.72 11.72 0 0 1 8.49 8.49l2.82 11.154c.727 2.879 4.818 2.879 5.545 0l2.82-11.154a11.72 11.72 0 0 1 8.49-8.49l11.154-2.82c2.879-.727 2.879-4.817 0-5.545z"/></g><path d="M114.939 139.254c0 30.009-24.325 54.335-54.335 54.335-19.017 0-35.746-9.759-45.453-24.555 11.285-31.242 28.473-59.664 50.218-83.905 27.773 2.413 49.57 25.724 49.57 54.125z" fill="#f4d558"/><g fill="#755139"><path d="M450.55 422.39C403.602 477.236 333.866 512 256 512c-44.753 0-86.831-11.483-123.434-31.671-27.084-14.932-51.169-34.628-71.126-57.95 14.388-39.832 34.45-74.7 58.629-102.348 9.383-10.731 19.383-20.376 29.915-28.808 31.431-25.14 67.563-39.455 106.015-39.455 51.399 0 98.67 25.579 136.056 68.42 24.117 27.627 44.127 62.443 58.495 102.202z"/><path d="M426.203 217.924c0 38.39-12.706 73.801-34.147 102.264-31.284 41.566-81.178 68.326-137.289 67.929-27.512-.188-53.499-6.99-76.466-18.881-22.904-11.849-42.809-28.756-58.232-49.204-21.88-29.017-34.712-65.17-34.262-104.124.481-42.088 16.248-80.509 42.005-109.965 15.548-17.784 21.786-41.88 16.394-64.867-2.194-9.373-5.089-18.098-7.711-25.109-2.894-7.701 4.483-15.318 12.288-12.685 14.952 5.057 33.938 17.251 38.442 46.686.878 5.736 6.75 9.31 12.225 7.377 17.418-6.134 36.133-9.529 55.63-9.624.313-.01.616-.01.92-.01 19.822 0 38.849 3.406 56.55 9.634 5.465 1.933 11.337-1.64 12.215-7.377 4.504-29.435 23.489-41.629 38.452-46.686 7.795-2.633 15.182 4.984 12.288 12.685-2.633 7.011-5.517 15.736-7.722 25.109-5.381 22.946.773 47.031 16.3 64.763 26.228 29.935 42.12 69.15 42.12 112.085z"/></g><path d="M242.88 404.256c-30.187-5.425-53.769-18.574-67.504-27.94-3.44-2.346-1.348-7.721 2.77-7.104l.155.023c12.225 1.851 22.783 2.132 31.447 1.676 8.381-.441 10.851-11.657 3.448-15.612-28.719-15.343-49.723-36.94-63.212-64.077-12.267-24.659-18.327-53.905-18.327-87.185 0-2.113.061-4.223.18-6.332 2.467-43.744 34.787-80.411 78.01-87.58.47-.078.94-.154 1.412-.227 4.717-.732 4.673-7.542-.053-8.205-6.112-.858-12.758-1.499-19.5-1.647-6.149-.135-9.159-7.567-4.824-11.931 24.043-24.207 50.672-39.861 68.199-40.395-19.498.094-38.212 3.49-55.63 9.624-5.475 1.933-11.348-1.64-12.225-7.377-4.503-29.435-23.489-41.629-38.442-46.686-7.805-2.633-15.182 4.984-12.288 12.685 2.623 7.011 5.517 15.736 7.711 25.109 5.392 22.988-.846 47.083-16.394 64.867-25.757 29.456-41.524 67.877-42.005 109.965-.449 38.954 12.382 75.107 34.262 104.124-24.18 27.649-44.242 62.518-58.63 102.349 19.958 23.322 44.042 43.018 71.126 57.95 40.718 4.258 70.506 2.067 90.605-1.433 7.95-1.383 8.386-12.706.557-14.657-20.915-5.211-36.401-13.076-47.423-20.584-8.118-5.531-3.634-18.201 6.162-17.472 27.367 2.038 47.413-1.184 61.411-5.555 8.44-2.637 7.704-14.808-.998-16.373z" fill="#603f2a"/><path d="M325.967 119.406c-24.561-.266-46.595 10.539-61.446 27.728-4.501 5.211-12.546 5.211-17.048 0-14.851-17.19-36.885-27.995-61.446-27.728-44.878.487-80.164 38.755-79.102 83.623 1.909 80.692 67.92 145.519 149.071 145.519 81.152 0 147.162-64.827 149.071-145.519 1.064-44.869-34.221-83.136-79.1-83.623z" fill="#e0cc79"/><path d="M255.997 332.874c-35.083 0-68.216-13.506-93.294-38.031-25.038-24.487-39.282-57.225-40.109-92.185-.42-17.772 6.413-35.287 18.745-48.055 11.986-12.407 27.917-19.342 44.857-19.526l.717-.003c18.701 0 36.451 8.13 48.699 22.306a26.922 26.922 0 0 0 40.769-.001c12.247-14.175 29.997-22.305 48.697-22.305l.718.003c16.941.184 32.871 7.119 44.857 19.527 12.334 12.767 19.167 30.282 18.744 48.054-.827 34.96-15.072 67.698-40.109 92.185-25.076 24.525-58.208 38.031-93.291 38.031z" fill="#f7e28a"/><path d="M331.52 267.288c-22.904 0-41.537-18.634-41.537-41.537 0-18.748 12.635-35.239 30.725-40.104a41.687 41.687 0 0 1 10.812-1.432c22.904 0 41.537 18.634 41.537 41.537a41.73 41.73 0 0 1-1.43 10.804c-4.868 18.097-21.358 30.732-40.107 30.732z" fill="#e0cc79"/><path d="M354.02 222.322a22.67 22.67 0 0 1-.778 5.867c-2.579 9.588-11.318 16.632-21.72 16.632-12.426 0-22.499-10.073-22.499-22.499 0-10.402 7.044-19.141 16.632-21.72a22.628 22.628 0 0 1 5.867-.778c12.425-.001 22.498 10.072 22.498 22.498z" fill="#0f0f0e"/><path d="M354.02 222.322a22.67 22.67 0 0 1-.778 5.867 20.762 20.762 0 0 1-8.74 1.921c-11.474 0-20.768-9.293-20.768-20.768 0-3.115.693-6.092 1.922-8.74a22.628 22.628 0 0 1 5.867-.778c12.424-.001 22.497 10.072 22.497 22.498z" fill="#e6e6e6"/><path d="M181.264 267.288c-22.904 0-41.537-18.634-41.537-41.537 0-18.748 12.635-35.239 30.725-40.104a41.687 41.687 0 0 1 10.812-1.432c22.904 0 41.537 18.634 41.537 41.537a41.73 41.73 0 0 1-1.43 10.804c-4.868 18.097-21.36 30.732-40.107 30.732z" fill="#e0cc79"/><path d="M203.762 222.322a22.67 22.67 0 0 1-.778 5.867c-2.579 9.588-11.318 16.632-21.72 16.632-12.426 0-22.499-10.073-22.499-22.499 0-10.402 7.044-19.141 16.632-21.72a22.628 22.628 0 0 1 5.867-.778c12.427-.001 22.498 10.072 22.498 22.498z" fill="#0f0f0e"/><path d="M203.762 222.322a22.67 22.67 0 0 1-.778 5.867 20.762 20.762 0 0 1-8.74 1.921c-11.474 0-20.768-9.293-20.768-20.768 0-3.115.693-6.092 1.922-8.74a22.628 22.628 0 0 1 5.867-.778c12.426-.001 22.497 10.072 22.497 22.498z" fill="#e6e6e6"/><path d="M264.584 302.609l15.925-43.589c5.342-14.619-5.483-30.097-21.047-30.097h-6.932c-15.565 0-26.389 15.478-21.047 30.097l15.925 43.589c2.927 8.006 14.25 8.006 17.176 0z" fill="#823603"/></svg>