<svg xmlns="http://www.w3.org/2000/svg" viewBox="0 0 512 512"><path d="M138.782 101.057L53.21 0 41.358 10.712c-1.791 1.619-43.679 40.216-26.781 89.407 10.819 31.494 51.925 66.302 56.578 70.167l67.627-69.229z" fill="#b17e15"/><path d="M115.173 121.049L51.826 46.237c-6.956 10.56-13.895 26.645-7.992 43.83 6.786 19.756 37.032 48.066 47.091 56.425l24.248-25.443z" fill="#965500"/><path d="M373.217 101.057L458.789 0l11.852 10.712c1.791 1.619 43.679 40.216 26.781 89.407-10.819 31.494-51.925 66.302-56.578 70.167l-67.627-69.229z" fill="#835e10"/><path d="M396.826 121.049l63.347-74.811c6.956 10.56 13.895 26.645 7.992 43.83-6.786 19.756-37.032 48.066-47.091 56.425l-24.248-25.444z" fill="#703f00"/><path d="M255.999 512c-61.379 0-119.085-23.903-162.488-67.305-43.403-43.402-67.305-101.108-67.305-162.488S50.109 163.12 93.511 119.719c43.402-43.402 101.108-67.304 162.488-67.304s119.085 23.903 162.488 67.304 67.305 101.108 67.305 162.488c0 61.379-23.903 119.085-67.305 162.488S317.379 512 255.999 512z" fill="#efc589"/><path d="M155.868 360.493c-46.102 0-83.61-42.56-83.61-94.874s37.507-94.874 83.61-94.874 83.61 42.56 83.61 94.874-37.507 94.874-83.61 94.874z" fill="#fff"/><path d="M255.999 439.373l-13.621-25.319c-.335-.623-8.294-15.442-16.38-32.706-15.472-33.03-17.456-45.007-17.456-51.751 0-26.168 21.29-47.457 47.457-47.457s47.457 21.29 47.457 47.457c0 6.744-1.984 18.721-17.456 51.751-8.087 17.264-16.046 32.083-16.38 32.706l-13.621 25.319z" fill="#ffab00"/><path d="M135.562 265.616c0-11.362 9.107-20.562 20.299-20.562 11.206 0 20.312 9.201 20.312 20.562 0 11.36-9.106 20.569-20.312 20.569-11.19-.001-20.299-9.21-20.299-20.569z" fill="#333"/><path d="M485.792 282.208c0-61.38-23.903-119.086-67.305-162.488-43.234-43.235-100.664-67.113-161.78-67.296v229.734c25.841.382 46.75 21.508 46.75 47.44 0 6.744-1.984 18.721-17.456 51.751-8.087 17.264-16.046 32.083-16.38 32.706l-12.914 24.002v73.935c61.115-.184 118.545-24.061 161.78-67.296 43.403-43.403 67.305-101.109 67.305-162.488z" fill="#b19267"/><path d="M356.131 360.493c-46.102 0-83.61-42.56-83.61-94.874s37.507-94.874 83.61-94.874 83.61 42.56 83.61 94.874-37.508 94.874-83.61 94.874z" fill="#bdbdbf"/><path d="M269.621 414.054c.335-.623 8.294-15.442 16.38-32.706 15.472-33.03 17.456-45.007 17.456-51.751 0-25.931-20.907-47.058-46.75-47.44v155.899l12.914-24.002z" fill="#bd7f00"/><path d="M335.826 265.616c0-11.362 9.107-20.562 20.299-20.562 11.206 0 20.312 9.201 20.312 20.562 0 11.36-9.106 20.569-20.312 20.569-11.192-.001-20.299-9.21-20.299-20.569z" fill="#333"/></svg>