<svg xmlns="http://www.w3.org/2000/svg" viewBox="0 0 511.998 511.998"><path d="M126.626 362.629c-22.395 23.706-85.858 52.389-109.563 29.994s1.323-87.386 23.718-111.091 59.766-24.769 83.471-2.374 24.769 59.765 2.374 83.471z" fill="#596675"/><path d="M124.252 279.158c-23.706-22.395-61.077-21.332-83.471 2.374-1.821 1.928-3.659 4.132-5.487 6.561 4.074 41.389 18.932 76.773 43.751 104.359 19.259-7.578 37.546-19.198 47.583-29.823 22.393-23.706 21.33-61.077-2.376-83.471z" opacity=".1"/><path d="M385.372 362.629c22.395 23.706 85.858 52.389 109.563 29.994 23.706-22.395-1.323-87.386-23.718-111.091s-59.766-24.769-83.471-2.374c-23.705 22.394-24.768 59.765-2.374 83.471z" fill="#596675"/><path d="M387.747 279.158c23.706-22.395 61.078-21.332 83.471 2.374 1.821 1.928 3.659 4.132 5.487 6.561-4.074 41.389-18.932 76.773-43.751 104.359-19.259-7.578-37.546-19.198-47.583-29.823-22.393-23.706-21.33-61.077 2.376-83.471z" opacity=".1"/><path d="M458.451 264.193c0-122.393-90.641-221.612-202.452-221.612S53.546 141.8 53.546 264.193s90.641 174.761 202.452 174.761 202.453-52.368 202.453-174.761z" fill="#596675"/><path d="M458.451 264.193c0-122.393-90.641-221.612-202.452-221.612S53.546 141.8 53.546 264.193s90.641 174.761 202.452 174.761 202.453-52.368 202.453-174.761z" opacity=".1"/><path d="M255.999 169.96c-73.216 0-132.569 64.459-132.569 143.974 0 46.67 20.453 88.145 52.147 114.453 24.653 7.138 51.843 10.569 80.422 10.569 28.579 0 55.769-3.431 80.422-10.569 31.694-26.308 52.147-67.783 52.147-114.453 0-79.515-59.354-143.974-132.569-143.974z" fill="#8090a0"/><g opacity=".1"><path d="M255.999 334.994a7.474 7.474 0 0 1-5.303-2.197l-18.599-18.599a7.502 7.502 0 0 1 10.608-10.608L256 316.885l13.296-13.296a7.502 7.502 0 0 1 10.608 10.608l-18.599 18.599a7.485 7.485 0 0 1-5.306 2.198zM197.565 370.868a7.478 7.478 0 0 1-5.303-2.197l-18.599-18.599a7.5 7.5 0 1 1 10.608-10.607l13.296 13.296 13.296-13.296a7.5 7.5 0 0 1 10.607 10.607l-18.6 18.598a7.477 7.477 0 0 1-5.305 2.198zM314.432 370.868a7.478 7.478 0 0 1-5.303-2.197l-18.599-18.599a7.5 7.5 0 1 1 10.608-10.607l13.296 13.296 13.296-13.296a7.502 7.502 0 0 1 10.608 10.607l-18.599 18.599a7.488 7.488 0 0 1-5.307 2.197z"/></g><path d="M227.057 44.845c-98.099 15.374-173.51 107.714-173.51 219.349 0 122.393 90.641 174.762 202.452 174.762 8.557 0 16.988-.31 25.266-.932C69.426 418.48 154.863 113.439 227.057 44.845z" opacity=".1"/><path d="M464.568 35.558a230.126 230.126 0 0 1-115.416 31.033H162.846A230.15 230.15 0 0 1 47.43 35.558c-12.485-7.238-27.633 3.926-24.352 17.979 6.511 27.887 21.931 54.064 50.888 66.749-9.402 16.054-14.796 34.739-14.796 54.686 0 59.857 48.524 108.38 108.38 108.38 36.515 0 68.811-18.058 88.448-45.731 19.637 27.673 51.933 45.731 88.448 45.731 59.857 0 108.38-48.524 108.38-108.38 0-19.948-5.394-38.632-14.796-54.686 28.957-12.685 44.376-38.861 50.888-66.749 3.283-14.052-11.865-25.216-24.35-17.979z" fill="#596675"/><g fill="#fff"><circle cx="167.552" cy="174.973" r="68.515"/><circle cx="344.445" cy="174.973" r="68.515"/></g><path d="M271.35 198.986l23.114 23.869a12.584 12.584 0 0 1 1.31 15.911L261.36 288.53c-2.591 3.747-8.131 3.747-10.722 0l-34.414-49.764a12.584 12.584 0 0 1 1.31-15.911l23.114-23.869h30.702z" opacity=".1"/><path d="M240.648 198.986l-15.688 14.14a13.727 13.727 0 0 0-2.355 17.619l26.518 41.24c3.218 5.005 10.535 5.005 13.753 0l26.518-41.24a13.727 13.727 0 0 0-2.355-17.619l-15.688-14.14c-8.725-7.862-21.98-7.862-30.703 0z" fill="#fbdd56"/><path d="M254.723 193.147c-5.062.281-10.052 2.213-14.075 5.84l-15.688 14.14a13.727 13.727 0 0 0-2.355 17.619l26.518 41.24c1.984 3.085 5.523 4.261 8.702 3.543-8.833-15.522-7.272-66.335-3.102-82.382z" opacity=".1"/><g fill="#fbdd56"><path d="M197.477 478.727c-16.528 0-29.926-13.398-29.926-29.926V429.11c0-16.527 13.398-29.926 29.926-29.926 16.527 0 29.926 13.398 29.926 29.926v19.691c.001 16.528-13.398 29.926-29.926 29.926zM314.521 478.727c16.528 0 29.926-13.398 29.926-29.926V429.11c0-16.527-13.398-29.926-29.926-29.926-16.527 0-29.926 13.398-29.926 29.926v19.691c0 16.528 13.398 29.926 29.926 29.926z"/></g><path d="M168.43 152.001a7.501 7.501 0 0 0-7.501 7.501v14.781a7.501 7.501 0 0 0 15.002 0v-14.781a7.5 7.5 0 0 0-7.501-7.501zm175.138 29.781a7.501 7.501 0 0 0 7.501-7.501V159.5a7.501 7.501 0 0 0-15.002 0v14.781a7.502 7.502 0 0 0 7.501 7.501zm133.103 94.599a66.532 66.532 0 0 0-10.754-9.186c.012-1.001.036-1.995.036-3.002 0-21.791-2.819-43.359-8.364-64.148a115.832 115.832 0 0 0 2.74-25.073c0-17.878-4.131-35.49-12.004-51.395 30.052-16.477 42.641-45.813 47.9-68.334 2.206-9.448-1.273-18.907-9.08-24.689-7.827-5.796-17.918-6.365-26.337-1.485a222.899 222.899 0 0 1-111.19 30.018C320.401 43.17 288.919 35.08 256.001 35.08c-32.917 0-64.396 8.089-93.612 24.004a222.774 222.774 0 0 1-53.844-6.717 7.504 7.504 0 0 0-9.104 5.444 7.502 7.502 0 0 0 5.444 9.104 237.86 237.86 0 0 0 57.961 7.178H347.707l.023.002.022-.002h1.4a237.935 237.935 0 0 0 119.177-32.044c4.751-2.756 8.769-.266 9.887.562 1.11.822 4.637 3.917 3.398 9.223-4.885 20.924-16.935 48.592-46.594 61.585a7.502 7.502 0 0 0-3.462 10.66c9.007 15.38 13.768 32.98 13.768 50.896 0 55.625-45.254 100.88-100.88 100.88a100.761 100.761 0 0 1-61.616-21.033l12.871-20.017c.22-.342.41-.695.608-1.046 13.118 10.762 29.885 17.231 48.137 17.231 41.915 0 76.016-34.101 76.016-76.017 0-41.915-34.101-76.016-76.016-76.016-41.916 0-76.017 34.101-76.017 76.016 0 4.742.458 9.377 1.293 13.881a30.343 30.343 0 0 0-27.449 0 76.061 76.061 0 0 0 1.293-13.881c0-41.915-34.101-76.016-76.017-76.016-41.915 0-76.016 34.101-76.016 76.016 0 41.916 34.101 76.017 76.016 76.017 18.251 0 35.019-6.469 48.137-17.231.198.35.388.703.608 1.045l12.871 20.017a100.759 100.759 0 0 1-61.616 21.033c-55.625 0-100.88-45.254-100.88-100.88 0-17.915 4.761-35.515 13.768-50.896a7.499 7.499 0 0 0-3.463-10.66c-29.658-12.992-41.708-40.66-46.594-61.585-1.239-5.304 2.288-8.4 3.398-9.222 1.118-.828 5.137-3.317 9.888-.563a238.693 238.693 0 0 0 20.059 10.387 7.502 7.502 0 0 0 6.258-13.634A223.705 223.705 0 0 1 51.19 29.07c-8.419-4.881-18.51-4.311-26.337 1.485-7.807 5.78-11.286 15.241-9.08 24.689 5.259 22.521 17.848 51.857 47.901 68.334a115.926 115.926 0 0 0-12.005 51.395c0 8.608.951 16.996 2.74 25.073-5.545 20.788-8.364 42.357-8.364 64.148 0 1.008.012 2.009.024 3.01a66.49 66.49 0 0 0-10.743 9.178c-24.575 26.015-51.362 95.294-23.416 121.694 7.594 7.174 18.022 10.069 29.599 10.068 17.543-.001 37.704-6.658 54.602-15.141 17.245 16.403 38.661 29.202 63.937 38.236V448.8c0 20.638 16.789 37.427 37.427 37.427s37.427-16.789 37.427-37.427v-2.991c6.957.423 14.019.646 21.095.646 7.076 0 14.138-.223 21.095-.646v2.991c0 20.638 16.79 37.427 37.427 37.427 20.638 0 37.427-16.789 37.427-37.427v-17.552a214.094 214.094 0 0 0 10.09-3.887 7.5 7.5 0 1 0-5.762-13.85 196.284 196.284 0 0 1-6.652 2.62c-5.288-14.259-19.027-24.449-35.104-24.449-20.638 0-37.427 16.789-37.427 37.427v1.678a336.687 336.687 0 0 1-42.19 0v-1.678c0-20.638-16.789-37.427-37.427-37.427-16.076 0-29.815 10.19-35.104 24.449-20.184-7.552-41.327-19.171-59.048-37.041a7.422 7.422 0 0 0-.944-.964c-22.849-23.491-39.785-57.587-41.224-107.058a234.274 234.274 0 0 1-.11-6.874c0-12.534.996-24.986 2.957-37.239 19.085 37.864 58.33 63.899 103.547 63.899 25.279 0 49.736-8.244 69.766-23.359l5.496 8.548a15.614 15.614 0 0 0 13.186 7.198 15.61 15.61 0 0 0 13.185-7.198l5.496-8.549a115.776 115.776 0 0 0 69.766 23.36c45.216 0 84.461-26.035 103.547-63.899a235.755 235.755 0 0 1 2.957 37.239c0 2.261-.043 4.493-.105 6.711l-.005.135c-1.283 44.441-15.155 80.367-41.342 107.191a7.4 7.4 0 0 0-.746.756 146.24 146.24 0 0 1-18.909 16.061 7.5 7.5 0 0 0 4.365 13.605 7.472 7.472 0 0 0 4.353-1.397 160.589 160.589 0 0 0 17.291-14.268c16.906 8.493 37.08 15.158 54.634 15.157 11.574 0 22.007-2.895 29.599-10.068 27.95-26.402 1.163-95.682-23.411-121.696zM199.772 59.092c18.08-5.988 36.889-9.01 56.227-9.01s38.147 3.022 56.227 9.01H199.772zm92.323 370.017c0-12.366 10.061-22.426 22.426-22.426 11.585 0 21.145 8.83 22.307 20.113l.005.047c.075.745.114 1.501.114 2.266V448.8c0 12.366-10.06 22.426-22.426 22.426-12.366 0-22.426-10.06-22.426-22.426v-19.691zm-117.043 0c0-.765.039-1.521.114-2.267l.005-.046c1.161-11.283 10.722-20.113 22.307-20.113 12.366 0 22.426 10.06 22.426 22.426V448.8c0 12.366-10.061 22.426-22.426 22.426-12.366 0-22.426-10.06-22.426-22.426v-19.691zm-95.755-54.965c1.921 2.552 3.945 5.018 6.02 7.443-11.536 5.414-23.14 9.179-33.402 10.776-9.483 1.477-22.331 1.774-29.703-5.191-18.583-17.555 1.978-77.156 24.019-100.488.255-.27.532-.518.793-.783 3.155 34.313 13.966 63.926 32.273 88.243zm265.15-260.187c33.644 0 61.015 27.371 61.015 61.015 0 33.645-27.371 61.016-61.015 61.016-33.645 0-61.016-27.371-61.016-61.016.001-33.643 27.372-61.015 61.016-61.015zm-176.896 122.03c-33.644 0-61.015-27.371-61.015-61.016 0-33.644 27.371-61.015 61.015-61.015 33.645 0 61.016 27.371 61.016 61.015 0 33.645-27.372 61.016-61.016 61.016zm89.016 31.942c-.06.093-.199.31-.567.31a.613.613 0 0 1-.567-.31l-26.519-41.239a6.204 6.204 0 0 1 1.068-7.991l15.688-14.14v.001a15.394 15.394 0 0 1 20.659-.001l15.688 14.14a6.203 6.203 0 0 1 1.068 7.991l-26.518 41.239zm233.218 119.242c-7.373 6.965-20.222 6.667-29.703 5.19-10.257-1.596-21.854-5.357-33.384-10.768 8.374-9.769 15.461-20.539 21.192-32.248 9.208-18.814 14.914-40.093 17.071-63.457.265.268.546.52.805.794 22.04 23.332 42.602 82.934 24.019 100.489z"/></svg>