<svg xmlns="http://www.w3.org/2000/svg" viewBox="0 0 58 58"><g fill="#7f5b53"><path d="M31 8.945l-.014.002.014.051V9l.014-.054L31 8.945zM19.355 54c4.383 2.824 9.173 4 11.645 4 2.469 0 7.26-1.176 11.642-4H19.355z"/><path d="M46.51 4.114L41.144 0l-5.983 3.349a8.486 8.486 0 0 0-4.14 5.574h-.042a8.49 8.49 0 0 0-4.136-5.571L20.857 0l-5.359 4.105C8.688 9.32 5.28 17.832 6.573 26.312c.227 1.491.439 2.99.562 4.478C7.254 32.229 10 36.195 10 37c0 5.31 1.927 9.909 4.656 13h32.688C50.072 46.909 52 42.31 52 37c0-.805 2.747-4.77 2.865-6.208.123-1.488.334-2.988.562-4.478 1.292-8.476-2.113-16.984-8.917-22.2zM31 9c-.27-.022-.15-.04-.014-.054l-.001-.003.015.002.015-.001-.001.003c.136.013.256.031-.014.053z"/></g><path d="M41 29c-5.514 0-10-4.486-10-10S35.486 9 41 9s10 4.486 10 10-4.486 10-10 10z" fill="#6b4b47"/><circle cx="41" cy="19" r="6" fill="#fff"/><circle cx="41" cy="19" r="3" fill="#2c2f38"/><path d="M21 29c-5.514 0-10-4.486-10-10S15.486 9 21 9s10 4.486 10 10-4.486 10-10 10z" fill="#6b4b47"/><circle cx="21" cy="19" r="6" fill="#fff"/><circle cx="21" cy="19" r="3" fill="#2c2f38"/><path d="M31.729 22.728L31 22l-.728.728a10.042 10.042 0 0 1-3.87 4.674L31 32l4.598-4.598a10.04 10.04 0 0 1-3.869-4.674z" fill="#f0c419"/><path d="M0 50h56a2 2 0 1 1 0 4H0v-4z" fill="#cb8252"/><g fill="#2c2f38"><path d="M19 45h2v7h-2zM22 48h2v4h-2zM16 48h2v4h-2zM41 45h2v7h-2zM44 48h2v4h-2zM38 48h2v4h-2z"/></g><path d="M35.951 51H26.05a1 1 0 0 1-.966-.741c-1.549-5.787-5.076-9.446-10.782-11.187-.586-.178-1.155-.254-1.758-.334-.991-.132-2.017-.269-3.015-.889a.998.998 0 0 1-.447-.626c-.09-.203-.414-.79-.678-1.268-1.188-2.151-2.177-4.018-2.265-5.084-.124-1.495-.339-3.003-.554-4.41A24.553 24.553 0 0 1 8.94 9.922a.999.999 0 0 1 1.302-.369 4.974 4.974 0 0 1 2.42 6.255l-1.865-.723a2.969 2.969 0 0 0-.688-3.197 22.562 22.562 0 0 0-2.547 14.273c.22 1.441.441 2.991.57 4.547.06.726 1.386 3.127 2.023 4.281.347.628.567 1.027.703 1.311.57.272 1.217.358 1.951.456.625.083 1.334.178 2.077.403 6.083 1.857 10.09 5.837 11.917 11.841h8.394c1.828-6.004 5.834-9.984 11.919-11.84a18.438 18.438 0 0 0 4.095-1.85c.142-.256.366-.589.703-1.09.568-.845 1.899-2.824 1.956-3.512.128-1.554.35-3.103.569-4.546a22.562 22.562 0 0 0-2.544-14.267 2.98 2.98 0 0 0-.69 3.192l-1.868.715a4.983 4.983 0 0 1 2.424-6.243 1 1 0 0 1 1.303.369 24.567 24.567 0 0 1 3.353 16.534c-.215 1.408-.43 2.917-.554 4.41-.092 1.115-1.092 2.681-2.29 4.463-.232.345-.516.767-.611.938a.999.999 0 0 1-.434.574c-1.578.979-3.203 1.728-4.829 2.224-5.706 1.739-9.233 5.398-10.782 11.186a1 1 0 0 1-.966.743z" fill="#4f3733"/><path d="M32.8 50.244l-1.95-.443c1.922-8.457 7.002-13.997 15.099-16.467 3.484-1.063 5.921-2.989 7.245-5.725 2.767-5.72-.095-13.17-.125-13.244l1.862-.73c.132.338 3.206 8.348.063 14.846-1.576 3.258-4.423 5.534-8.462 6.766-7.361 2.245-11.981 7.291-13.732 14.997z" fill="#4f3733"/><path d="M29.2 50.242c-1.752-7.705-6.372-12.75-13.732-14.996-4.038-1.231-6.885-3.508-8.461-6.766-3.144-6.498-.07-14.508.063-14.846l1.862.729c-.029.074-2.886 7.551-.121 13.253 1.325 2.731 3.761 4.655 7.241 5.717 8.096 2.47 13.176 8.009 15.099 16.465l-1.951.444zM39 35h-2a1.001 1.001 0 0 0-2 0h-2c0-1.654 1.346-3 3-3s3 1.346 3 3zM34 40h-2a1.001 1.001 0 0 0-2 0h-2c0-1.654 1.346-3 3-3s3 1.346 3 3z" fill="#4f3733"/><path d="M29 35h-2a1.001 1.001 0 0 0-2 0h-2c0-1.654 1.346-3 3-3s3 1.346 3 3z" fill="#4f3733"/></svg>