<svg xmlns="http://www.w3.org/2000/svg" viewBox="0 0 512 512"><path d="M384.45 396.442c0 59.637-57.509 91.521-128.45 91.521s-128.45-31.884-128.45-91.521S185.059 288.459 256 288.459s128.45 48.346 128.45 107.983z" fill="#a16b4e"/><g opacity=".1"><path d="M256 435.048a7.5 7.5 0 0 1-7.5-7.5v-11.447c0-4.143 3.358-7.5 7.5-7.5s7.5 3.357 7.5 7.5v11.447a7.5 7.5 0 0 1-7.5 7.5zM220.765 418.259a7.5 7.5 0 0 1-7.5-7.5v-12.21c0-4.143 3.358-7.5 7.5-7.5s7.5 3.357 7.5 7.5v12.21a7.5 7.5 0 0 1-7.5 7.5zM291.235 418.259a7.5 7.5 0 0 1-7.5-7.5v-12.21c0-4.143 3.358-7.5 7.5-7.5s7.5 3.357 7.5 7.5v12.21a7.5 7.5 0 0 1-7.5 7.5z"/></g><g fill="#7d4e3e"><path d="M87.777 352.634c-9.548 26.232-12.761 101.227 13.471 110.775s71.976-49.967 81.524-76.199-3.978-55.237-30.21-64.785-55.238 3.977-64.785 30.209zM424.223 352.634c9.548 26.232 12.761 101.227-13.471 110.775s-71.976-49.967-81.524-76.199c-9.548-26.232 3.978-55.237 30.21-64.785 26.232-9.548 55.237 3.977 64.785 30.209z"/></g><path d="M359.438 322.424a50.937 50.937 0 0 0-6.683 2.999c-23.546-22.652-58.161-36.964-96.756-36.964s-73.21 14.312-96.756 36.964a50.937 50.937 0 0 0-6.683-2.999c-15.252-5.551-31.435-3.29-44.193 4.721 32.532 39.143 86.52 64.753 147.631 64.753s115.099-25.61 147.631-64.753c-12.756-8.011-28.939-10.272-44.191-4.721z" opacity=".15"/><ellipse cx="256" cy="191.38" rx="207.62" ry="174.53" fill="#a16b4e"/><path d="M394.578 61.423c30.87 30.465 49.512 69.955 49.512 113.11 0 96.392-92.952 174.533-207.615 174.533-53.259 0-101.826-16.866-138.578-44.581 38.081 37.581 94.776 61.423 158.103 61.423 114.663 0 207.615-78.141 207.615-174.534 0-51.618-26.664-97.997-69.037-129.951z" opacity=".1"/><path d="M368.933 153.205l94.873-120.659c8.645-10.995-1.202-26.778-14.878-23.848l-36.131 7.742a85.542 85.542 0 0 1-40.655-1.176L327.073 2.845a79.138 79.138 0 0 0-61.571 8.33 18.547 18.547 0 0 1-19.004 0 79.143 79.143 0 0 0-61.571-8.33l-45.069 12.421a85.555 85.555 0 0 1-40.655 1.176L63.072 8.699C49.396 5.768 39.549 21.552 48.194 32.546l94.873 120.659h225.866z" fill="#fc8063"/><circle cx="178.4" cy="153.21" r="77.6" fill="#fad97e"/><path d="M202.086 168.412a7.5 7.5 0 0 1-7.5-7.5c0-8.925-7.261-16.186-16.185-16.186s-16.185 7.261-16.185 16.186c0 4.143-3.358 7.5-7.5 7.5s-7.5-3.357-7.5-7.5c0-17.195 13.99-31.186 31.185-31.186s31.185 13.99 31.185 31.186a7.5 7.5 0 0 1-7.5 7.5z" fill="#4a5058"/><circle cx="333.6" cy="153.21" r="77.6" fill="#fad97e"/><path d="M357.284 168.412a7.5 7.5 0 0 1-7.5-7.5c0-8.925-7.261-16.186-16.185-16.186s-16.185 7.261-16.185 16.186c0 4.143-3.358 7.5-7.5 7.5s-7.5-3.357-7.5-7.5c0-17.195 13.99-31.186 31.185-31.186s31.185 13.99 31.185 31.186a7.5 7.5 0 0 1-7.5 7.5z" fill="#4a5058"/><path d="M245.467 172.099l-21.956 42.33a24.447 24.447 0 0 0 4.415 28.542l18.844 18.844c5.098 5.098 13.364 5.098 18.462 0l18.844-18.844a24.447 24.447 0 0 0 4.415-28.542l-21.956-42.33c-4.43-8.536-16.641-8.536-21.068 0z" opacity=".1"/><g fill="#fc8063"><path d="M245.467 157.535l-21.956 42.33a24.447 24.447 0 0 0 4.415 28.542l18.844 18.844c5.098 5.098 13.364 5.098 18.462 0l18.844-18.844a24.447 24.447 0 0 0 4.415-28.542l-21.956-42.33c-4.43-8.537-16.641-8.537-21.068 0zM209.262 512c-11.062 0-20.03-8.968-20.03-20.03v-27.534c0-11.063 8.968-20.031 20.03-20.031 11.063 0 20.031 8.968 20.031 20.031v27.534c0 11.062-8.968 20.03-20.031 20.03zM302.738 512c-11.063 0-20.031-8.968-20.031-20.03v-27.534c0-11.063 8.968-20.031 20.031-20.031 11.062 0 20.031 8.968 20.031 20.031v27.534c-.001 11.062-8.969 20.03-20.031 20.03z"/></g></svg>