<svg xmlns="http://www.w3.org/2000/svg" viewBox="0 0 512 512"><path d="M497.437 27.287l-6.922-22.561-17.496 15.836c-46.128 41.749-108.054 63.532-108.673 63.747l4.909 14.182 4.901 14.184c.493-.171 2.992-1.045 7.049-2.625l76.642 74.139c-.523.867-1.039 1.739-1.588 2.595l12.635 8.091.002.002v-.001l12.638 8.093c46.657-72.855 17.18-171.518 15.903-175.682z" fill="#974c00"/><path d="M32.424 4.725l-6.922 22.561C24.224 31.45-5.254 130.113 41.403 202.97l12.637-8.093.003-.003 12.635-8.091c-.549-.856-1.065-1.728-1.588-2.595l76.642-74.138c4.058 1.581 6.556 2.455 7.05 2.625l9.802-28.369c-.618-.214-62.374-21.848-108.664-63.744L32.424 4.725z" fill="#e37500"/><path d="M512 317.118c0 34.478-14.147 66.134-42.041 94.088-21.281 21.321-50.656 40.491-87.304 56.979-61.271 27.554-121.552 38.209-124.083 38.65l-2.571.44-2.571-.44c-2.531-.44-62.812-11.096-124.083-38.65-36.649-16.488-66.024-35.658-87.304-56.979C14.147 383.252 0 351.596 0 317.118c0-68.375 26.634-132.667 74.978-181.022C123.333 87.752 187.615 61.118 256 61.118s132.667 26.634 181.022 74.978C485.366 184.451 512 248.743 512 317.118z" fill="#ffa720"/><path d="M512 317.118c0 34.478-14.147 66.134-42.041 94.088-21.281 21.321-50.656 40.491-87.304 56.979-61.271 27.554-121.552 38.209-124.083 38.65l-2.571.44V61.118c68.385 0 132.667 26.634 181.022 74.978C485.366 184.451 512 248.743 512 317.118z" fill="#ff8600"/><path fill="#ffd82d" d="M324.625 356.698L256 435.938l-67.184-77.579 25.083-89.275h85.643z"/><path fill="#fbbd00" d="M324.625 356.698L256 435.938V269.084h43.542z"/><circle cx="159.741" cy="259.142" r="94.688" fill="#dedee0"/><circle cx="352.259" cy="259.142" r="94.688" fill="#d6d6d8"/><path d="M159.745 213.906c-24.945 0-45.239 20.294-45.239 45.24s20.294 45.239 45.239 45.239 45.239-20.294 45.239-45.239-20.294-45.24-45.239-45.24z" fill="#57555c"/><path d="M352.255 213.906c-24.945 0-45.239 20.294-45.239 45.24s20.294 45.239 45.239 45.239c24.945 0 45.239-20.294 45.239-45.239s-20.293-45.24-45.239-45.24z" fill="#3a3a41"/><path d="M352.259 149.456c-41.451 0-77.599 23.112-96.249 57.129 0-.01-.01-.01-.01-.02a92.22 92.22 0 0 0-1.561-2.741c-19.05-32.497-54.378-54.368-94.688-54.368-60.491 0-109.696 49.205-109.696 109.696 0 60.481 49.205 109.696 109.696 109.696 40.31 0 75.638-21.881 94.688-54.368a92.22 92.22 0 0 0 1.561-2.741c0-.01.01-.01.01-.02 18.649 34.007 54.798 57.129 96.249 57.129 60.491 0 109.686-49.215 109.686-109.696 0-60.491-49.195-109.696-109.686-109.696zM159.751 338.832c-43.932 0-79.68-35.748-79.68-79.68 0-43.942 35.748-79.68 79.68-79.68s79.68 35.738 79.68 79.68c.001 43.932-35.748 79.68-79.68 79.68zm192.508 0c-43.932 0-79.68-35.748-79.68-79.68 0-43.942 35.748-79.68 79.68-79.68s79.67 35.738 79.67 79.68c0 43.932-35.738 79.68-79.67 79.68z" fill="#e37500"/><path d="M352.259 149.456c-41.451 0-77.599 23.112-96.249 57.129 0-.01-.01-.01-.01-.02v105.173c0-.01.01-.01.01-.02 18.649 34.007 54.798 57.129 96.249 57.129 60.491 0 109.686-49.215 109.686-109.696 0-60.49-49.195-109.695-109.686-109.695zm0 189.376c-43.932 0-79.68-35.748-79.68-79.68 0-43.942 35.748-79.68 79.68-79.68s79.67 35.738 79.67 79.68c0 43.932-35.738 79.68-79.67 79.68z" fill="#974c00"/></svg>