<svg xmlns="http://www.w3.org/2000/svg" viewBox="0 0 511.999 511.999"><ellipse cx="256.303" cy="322.135" rx="223.196" ry="165.33" fill="#ffcc9c"/><path d="M307.742 264.268H204.87L24.844 338.667c25.718 90.932 111.445 90.932 137.163 90.932s68.581 41.333 94.299 41.333 68.581-41.333 94.299-41.333c25.718 0 111.445 0 137.163-90.932l-180.026-74.399z" fill="#ffebd2"/><path d="M157.109 280.801v90.932c49.388-16.463 76.919 25.36 89.848 60.175 3.186 8.579 15.514 8.579 18.7 0 12.929-34.815 40.46-76.638 89.848-60.175v-90.932H157.109z" fill="#cfbaa4"/><ellipse cx="107.506" cy="272.536" rx="99.198" ry="132.264" fill="#dc9b5a"/><path d="M111.194 384.961c-53.417-12.17-83.565-79.774-67.337-150.996 9.488-41.642 32.766-75.18 61.11-93.523-53.599 1.816-96.655 60.191-96.655 132.093 0 73.047 44.412 132.264 99.198 132.264 23.522 0 45.098-10.969 62.102-29.21-18.426 10.112-38.626 13.882-58.418 9.372z" fill="#9f8976"/><ellipse cx="405.1" cy="272.536" rx="99.198" ry="132.264" fill="#dc9b5a"/><path d="M401.42 384.961c53.417-12.17 83.565-79.774 67.337-150.996-9.488-41.642-32.766-75.18-61.11-93.523 53.599 1.816 96.655 60.191 96.655 132.093 0 73.047-44.412 132.264-99.198 132.264-23.522 0-45.098-10.969-62.102-29.21 18.425 10.112 38.625 13.882 58.418 9.372z" fill="#9f8976"/><circle cx="380.301" cy="297.335" r="49.599" fill="#ffce56"/><circle cx="380.301" cy="297.335" r="24.8" fill="#464655"/><circle cx="132.305" cy="297.335" r="49.599" fill="#ffce56"/><g fill="#464655"><path d="M281.106 371.733c0-13.697-11.103-24.8-24.8-24.8-13.697 0-24.8 11.103-24.8 24.8 0 0 14.466 82.665 24.8 82.665 10.333 0 24.8-82.665 24.8-82.665z"/><circle cx="132.305" cy="297.335" r="24.8"/></g><path d="M256.306 91.814c-50.852 0-108.09 5.526-166.099 23.69 7.204 12.684 13.07 28.407 17.303 49.567C124.043 247.736 223.241 330.4 256.307 330.4s132.264-82.664 148.797-165.329c4.232-21.16 10.098-36.882 17.303-49.567-58.011-18.164-115.248-23.69-166.101-23.69z" fill="#9f8976"/><g fill="#726765"><path d="M.045 24.54c-.897-1.047 11.318 144.625 57.866 181.863 23.243 18.594 54.33 29.346 90.318 41.077-19.361-25.186-34.996-53.794-40.719-82.41C90.977 82.405 49.644 82.405.045 24.54zM511.954 24.54c-36.853 42.995-68.605 54.216-89.549 90.964-7.204 12.684-13.07 28.407-17.303 49.567-5.702 28.51-21.239 57.019-40.502 82.138 35.634-11.625 66.425-22.355 89.487-40.806 46.55-37.239 58.764-182.91 57.867-181.863z"/></g></svg>