<svg xmlns="http://www.w3.org/2000/svg" viewBox="0 0 512 512"><circle cx="256" cy="255.999" r="239.41" fill="#6a563d"/><circle cx="256" cy="255.999" r="215.68" fill="#806749"/><path d="M361.7 160.757c-56.199 0-102.25 43.444-106.406 98.579a107.842 107.842 0 0 0-.306 8.133c0-2.556-.096-5.089-.273-7.601-3.898-55.387-50.06-99.112-106.439-99.112-58.935 0-106.712 47.777-106.712 106.713s47.777 106.713 106.712 106.713c18.113 0 35.168-4.519 50.11-12.482l.3.624 11.389 16.619 46.004 67.133 45.315-66.126 11.895-17.358c14.53 7.41 30.983 11.591 48.413 11.591 58.935 0 106.712-47.777 106.712-106.713S420.635 160.757 361.7 160.757z" fill="#957755"/><g fill="#ffde56"><path d="M354.151 155.61c-52.224 0-95.018 40.37-98.879 91.606a100.538 100.538 0 0 0-.285 7.557c0 38.57 22.021 71.995 54.176 88.393 13.503 6.886 28.791 10.771 44.988 10.771 54.766 0 99.164-44.397 99.164-99.164s-44.398-99.163-99.164-99.163z"/><path d="M254.734 247.712c-3.623-51.47-46.519-92.101-98.91-92.101-54.766 0-99.164 44.397-99.164 99.164s44.397 99.164 99.164 99.164c16.832 0 32.68-4.199 46.565-11.598 31.294-16.677 52.599-49.63 52.599-87.565a101.29 101.29 0 0 0-.254-7.064z"/></g><path d="M254.987 312.026c0 15.483 17.084 32.283 43.122 47.272l11.054-16.13c-32.155-16.398-54.176-49.823-54.176-88.393 0 37.935-21.304 70.889-52.599 87.565l.279.579 10.583 15.443c25.257-14.955 41.737-30.875 41.737-46.336z" fill="#cba400"/><path d="M298.109 359.298c-26.038-14.99-43.122-31.79-43.122-47.272 0 15.461-16.48 31.381-41.737 46.337L256 420.747l42.109-61.449z" fill="#eebf00"/><g fill="#fed322"><path d="M212.928 250.697c-2.092-29.715-26.857-53.173-57.105-53.173-31.619 0-57.251 25.633-57.251 57.251s25.632 57.251 57.251 57.251c9.718 0 18.868-2.424 26.884-6.696 18.067-9.628 30.367-28.654 30.367-50.555 0-1.373-.051-2.731-.146-4.078zM411.255 250.697c-2.092-29.715-26.857-53.173-57.105-53.173-31.619 0-57.25 25.633-57.25 57.251s25.632 57.251 57.25 57.251c9.718 0 18.868-2.424 26.884-6.696 18.067-9.628 30.367-28.654 30.367-50.555a57.316 57.316 0 0 0-.146-4.078z"/></g><g fill="#fef5cc"><circle cx="354.16" cy="254.779" r="31.08"/><circle cx="155.82" cy="254.779" r="31.08"/></g><path d="M256 503.004c-65.977 0-128.005-25.692-174.658-72.346S8.997 321.977 8.997 256.002c0-65.978 25.692-128.005 72.346-174.658S190.023 8.997 256 8.997 384.005 34.69 430.658 81.343s72.346 108.68 72.346 174.658c0 65.977-25.693 128.004-72.346 174.657S321.977 503.004 256 503.004zm0-478.811c-127.819 0-231.808 103.989-231.808 231.808S128.181 487.807 256 487.807 487.808 383.82 487.808 256.001 383.819 24.193 256 24.193z"/><path d="M503.085 33.071c-7.253 11.487-43.372 65.532-80.886 65.532h-98.536c-37.369 0-67.662 30.294-67.662 67.662 0-37.369-30.294-67.662-67.661-67.662H89.802c-37.516 0-73.634-54.045-80.886-65.532-.383-.607-1.317-.33-1.317.388V97.47c0 32.522 26.364 58.886 58.886 58.886h90.355c54.764 0 99.16 32.892 99.16 87.657 0-54.764 44.395-87.657 99.16-87.657h90.355c32.522 0 58.886-26.364 58.886-58.886V33.459c.001-.717-.933-.994-1.316-.388z" fill="#bfab92"/><g fill="#b39a7c"><path d="M503.085 66.224c-7.253 11.487-43.372 65.532-80.886 65.532h-98.536c-37.369 0-67.662 30.294-67.662 67.662v44.596c0-54.764 44.395-87.657 99.16-87.657h90.355c32.522 0 58.886-26.364 58.886-58.886V66.612c0-.718-.934-.994-1.317-.388zM66.485 156.356h90.355c54.764 0 99.16 32.892 99.16 87.657v-44.596c0-37.369-30.294-67.662-67.661-67.662H89.802c-37.516 0-73.634-54.045-80.886-65.532-.383-.607-1.317-.33-1.317.388V97.47c-.001 32.522 26.364 58.886 58.886 58.886z"/></g><path d="M315.47 254.774c0 21.329 17.352 38.682 38.681 38.682s38.682-17.352 38.682-38.682c0-21.328-17.352-38.681-38.682-38.681-21.329 0-38.681 17.352-38.681 38.681zm62.166 0c0 12.95-10.536 23.486-23.486 23.486-12.951 0-23.485-10.536-23.485-23.486 0-12.95 10.535-23.485 23.485-23.485s23.486 10.535 23.486 23.485zM155.823 216.093c-21.329 0-38.682 17.352-38.682 38.681 0 21.329 17.352 38.682 38.682 38.682 21.328 0 38.681-17.352 38.681-38.682 0-21.329-17.352-38.681-38.681-38.681zm0 62.167c-12.95 0-23.486-10.536-23.486-23.486 0-12.951 10.536-23.485 23.486-23.485 12.951 0 23.485 10.535 23.485 23.485s-10.534 23.486-23.485 23.486zM232.21 31.708h15.859v15.195H232.21zM302.35 50.04h15.859v15.195H302.35zM256 57.904h15.859v15.195H256zM162.7 55.279h15.859v15.195H162.7z"/><path d="M503.678 25.141a8.263 8.263 0 0 0-7.017 3.874c-18.057 28.597-48.395 61.991-74.463 61.991H323.66c-29.698 0-55.427 17.295-67.661 42.339-12.234-25.043-37.963-42.339-67.661-42.339H89.8c-26.067 0-56.406-33.395-74.463-61.99a8.26 8.26 0 0 0-7.017-3.875C3.734 25.141 0 28.873 0 33.46v64.01c0 36.66 29.825 66.485 66.485 66.485h33.279c-30.405 18.836-50.703 52.5-50.703 90.82 0 58.868 47.893 106.761 106.762 106.761 15.145 0 30.19-3.253 43.92-9.443L256 434.187l55.777-81.394c13.363 5.803 27.585 8.743 42.374 8.743 58.868 0 106.761-47.892 106.761-106.761 0-38.32-20.297-71.984-50.702-90.82h35.305c36.66 0 66.485-29.825 66.485-66.485V33.46c0-4.587-3.733-8.319-8.322-8.319zM66.485 148.758c-28.281 0-51.29-23.009-51.29-51.29V55.342C31.747 76.994 59.666 106.2 89.801 106.2h98.538c33.119 0 60.064 26.945 60.064 60.064v25.822c-4.54-6.698-10.073-12.811-16.56-18.258-14.177-11.905-32.365-19.854-52.59-23.227a107.183 107.183 0 0 0-23.428-2.589c-4.26 0-8.459.258-12.59.746h-76.75zm-2.227 106.017c0-46.523 34.876-85.054 79.857-90.82h12.727c6.358 0 12.479.474 18.349 1.358 38.897 8.472 69.074 41.856 71.966 82.932a93.89 93.89 0 0 1 .234 6.53c0 33.91-18.612 64.894-48.574 80.859-13.143 7.004-28.009 10.706-42.991 10.706-50.492.001-91.568-41.076-91.568-91.565zM256 407.306l-42.815-62.478c.275-.174.538-.362.81-.539.73-.475 1.457-.954 2.173-1.445.415-.285.826-.572 1.236-.862a119.672 119.672 0 0 0 3.238-2.374c.676-.516 1.341-1.042 2.004-1.572.369-.296.741-.588 1.104-.887.743-.612 1.472-1.237 2.196-1.868.264-.23.535-.454.796-.686.977-.866 1.937-1.749 2.878-2.648.199-.19.389-.387.587-.578.737-.715 1.467-1.436 2.182-2.171.326-.335.642-.678.964-1.017.574-.607 1.146-1.216 1.706-1.836.343-.38.681-.765 1.019-1.15a115.754 115.754 0 0 0 2.549-3.008 112.41 112.41 0 0 0 1.497-1.885c.306-.394.614-.786.915-1.183.526-.696 1.037-1.402 1.546-2.11.246-.342.498-.681.74-1.026.74-1.057 1.463-2.123 2.163-3.205l.063-.099a104.87 104.87 0 0 0 1.976-3.189c.219-.367.426-.74.641-1.108.435-.75.866-1.501 1.283-2.261.239-.436.469-.875.702-1.314a98.514 98.514 0 0 0 1.789-3.527c.347-.718.685-1.441 1.016-2.167.21-.461.42-.921.624-1.384.337-.769.66-1.543.981-2.32.132-.32.276-.634.403-.955l.031.075c.48 1.201.985 2.391 1.506 3.572.173.392.358.778.536 1.167.372.814.75 1.626 1.142 2.43.22.452.448.899.675 1.346a106.828 106.828 0 0 0 1.889 3.569c.402.725.814 1.444 1.233 2.159.253.432.503.864.762 1.293.467.772.948 1.534 1.434 2.294.226.354.446.711.676 1.062a105.34 105.34 0 0 0 2.22 3.253c.089.125.183.245.273.37.68.946 1.374 1.882 2.085 2.807.277.36.564.713.846 1.07.539.683 1.082 1.362 1.638 2.03.329.397.666.788 1.001 1.18a107.032 107.032 0 0 0 2.683 3.021 104.1 104.1 0 0 0 1.712 1.806c.352.363.7.727 1.057 1.086.649.651 1.312 1.291 1.978 1.927.298.284.59.573.89.854.971.905 1.959 1.794 2.966 2.665.152.131.31.256.463.387.864.738 1.739 1.466 2.63 2.178.359.287.725.564 1.088.847.702.547 1.407 1.089 2.123 1.619.413.306.833.606 1.251.907a110.052 110.052 0 0 0 3.393 2.341c.728.481 1.465.952 2.206 1.417.285.178.56.368.847.544L256 407.306zm189.716-152.531c0 50.489-41.076 91.566-91.566 91.566-14.626 0-28.601-3.345-41.537-9.941-30.859-15.737-50.03-47.015-50.03-81.624 0-2.316.089-4.666.263-6.987.095-1.266.23-2.522.377-3.775h.373c0-1.095.042-2.174.081-3.252 5.48-35.484 31.515-64.152 65.115-73.932 8.234-1.87 17.05-2.874 26.365-2.874h10.702c44.982 5.765 79.857 44.295 79.857 90.819zm51.089-157.306c0 28.281-23.009 51.29-51.29 51.29H366.74a106.95 106.95 0 0 0-43.109 3.69c-16.571 4.033-31.462 11.291-43.475 21.38-6.486 5.448-12.019 11.56-16.56 18.258v-25.822c0-33.119 26.945-60.064 60.064-60.064h98.538c30.135 0 58.055-29.207 74.606-50.858v42.126h.001z"/></svg>