<svg xmlns="http://www.w3.org/2000/svg" viewBox="0 0 468.293 468.293"><g fill="#dc8744"><path d="M381.794 352.141l-16.241-112.135-73.413 135.351c27.872 9.44 51.126 9.44 67.412 7.08 14.476-2.096 24.338-15.819 22.242-30.296zM89.475 352.141l16.241-112.135 73.413 135.351c-27.872 9.44-51.126 9.44-67.412 7.08-14.476-2.096-24.338-15.819-22.242-30.296z"/><path d="M155.653 468.293c-14.724 0-21.653-11.376-16.089-24.017l30.336-68.917h32.867L187.6 444.275c-2.783 12.642-17.222 24.018-31.947 24.018z"/><path d="M208.974 468.293c-14.724 0-24.157-11.376-21.374-24.017l15.168-68.917h32.867v68.917c0 12.641-11.937 24.017-26.661 24.017zM262.295 468.293c-14.724 0-26.66-11.376-26.66-24.017v-68.917h32.867l15.168 68.917c2.782 12.641-6.651 24.017-21.375 24.017z"/><path d="M315.616 468.293c-14.724 0-29.164-11.376-31.946-24.017l-15.168-68.917h32.867l30.336 68.917c5.564 12.641-1.365 24.017-16.089 24.017zM355.119 71.556h-88.301L355.119 0z"/></g><path fill="#64798a" d="M287.029 63.186l59.717-42.978v42.978z"/><path fill="#dc8744" d="M116.15 71.556h88.301L116.15 0z"/><path fill="#64798a" d="M184.24 63.186l-59.716-42.978v42.978z"/><path d="M392.949 162.561c0 86.882-70.432 246.617-157.314 246.617S78.32 249.444 78.32 162.561s70.432-140.57 157.314-140.57 157.315 53.688 157.315 140.57z" fill="#f6c358"/><circle cx="173.705" cy="161.311" r="61.877" fill="#27a2db"/><circle cx="173.705" cy="161.311" r="44.688" fill="#e1e6e9"/><circle cx="173.705" cy="161.311" r="24.064" fill="#3a556a"/><circle cx="167.399" cy="150.734" r="10.577" fill="#ebf0f3"/><circle cx="297.584" cy="161.311" r="61.877" fill="#27a2db"/><circle cx="297.584" cy="161.311" r="44.688" fill="#e1e6e9"/><circle cx="297.584" cy="161.311" r="24.064" fill="#3a556a"/><circle cx="291.278" cy="150.734" r="10.577" fill="#ebf0f3"/><path d="M269.361 213.963c-8.432-14.604-59.021-14.604-67.453 0-6.142 10.638 14.559 36.773 26.256 50.184 3.954 4.533 10.987 4.533 14.941 0 11.697-13.412 32.398-39.547 26.256-50.184z" fill="#64798a"/><path d="M285.586 283.526c0 27.587-22.364 64.897-49.951 64.897s-49.951-37.31-49.951-64.897c0-27.587 22.364 15.811 49.951 15.811s49.951-43.398 49.951-15.811z" fill="#fcd462"/><path d="M432.286 421.826H36.007c-6.165 0-11.163-4.998-11.163-11.163S29.842 399.5 36.007 399.5h396.279c6.165 0 11.163 4.998 11.163 11.163-.001 6.165-4.998 11.163-11.163 11.163z" fill="#64798a"/><g fill="#3a556a"><path d="M283.47 429.701c-5.613 0-10.163-4.55-10.163-10.163v-17.749c0-5.613 4.55-10.163 10.163-10.163s10.163 4.55 10.163 10.163v17.749c.001 5.612-4.55 10.163-10.163 10.163zM303.797 429.701c-5.613 0-10.163-4.55-10.163-10.163v-17.749c0-5.613 4.55-10.163 10.163-10.163s10.163 4.55 10.163 10.163v17.749c0 5.612-4.55 10.163-10.163 10.163zM263.144 429.701c-5.613 0-10.163-4.55-10.163-10.163v-17.749c0-5.613 4.55-10.163 10.163-10.163s10.163 4.55 10.163 10.163v17.749c0 5.612-4.55 10.163-10.163 10.163zM184.822 429.701c-5.613 0-10.163-4.55-10.163-10.163v-17.749c0-5.613 4.55-10.163 10.163-10.163s10.163 4.55 10.163 10.163v17.749c.001 5.612-4.55 10.163-10.163 10.163zM205.149 429.701c-5.613 0-10.163-4.55-10.163-10.163v-17.749c0-5.613 4.55-10.163 10.163-10.163s10.163 4.55 10.163 10.163v17.749c0 5.612-4.55 10.163-10.163 10.163z"/><path d="M164.496 429.701c-5.613 0-10.163-4.55-10.163-10.163v-17.749c0-5.613 4.55-10.163 10.163-10.163s10.163 4.55 10.163 10.163v17.749c0 5.612-4.55 10.163-10.163 10.163z"/></g></svg>