<svg xmlns="http://www.w3.org/2000/svg" viewBox="0 0 490.682 490.682"><g fill="#662113"><path d="M93.575 145.793c-81.394 129.18 13.625 256 13.625 256s40.889-6.287 97.777-73.955c56.904-67.67-111.402-182.046-111.402-182.046M397.106 145.793c81.394 129.18-13.625 256-13.625 256s-40.875-6.287-97.777-73.955 111.402-182.046 111.402-182.046"/></g><g fill="#ffac33"><path d="M205.733 438.159c-1.75-3.258-4.51-5.461-7.553-7.054-28.9-30.891-8.377-67.086-8.377-67.086 0-9.999 18.09-36.181 0-36.181l-18.092 18.105c-18.091 18.076-18.091 72.362-18.091 72.362h-36.18c-9.999 0-18.091 8.093-18.091 18.105 0 9.97 8.092 18.063 18.091 18.063h20.025l-4.011 2.19c-8.789 4.75-12.046 15.715-7.31 24.533 4.765 8.775 15.73 12.06 24.519 7.31l47.758-25.827c8.79-4.738 12.033-15.718 7.312-24.52M285.32 438.159c1.749-3.258 4.509-5.461 7.538-7.054 28.927-30.891 8.377-67.086 8.377-67.086 0-9.999-18.076-36.181 0-36.181l18.105 18.105c18.091 18.076 18.091 72.362 18.091 72.362h36.182c10.012 0 18.076 8.093 18.076 18.105 0 9.97-8.064 18.063-18.076 18.063h-20.025l3.996 2.19c8.817 4.75 12.06 15.715 7.325 24.533-4.779 8.775-15.73 12.06-24.548 7.31l-47.73-25.827c-8.791-4.738-12.047-15.718-7.311-24.52"/></g><g fill="#662113"><path d="M391.716 149.931c41.116-86.641 0-149.931 0-149.931s-82.219 13.639-95.915 40.889c-17.336 34.489 95.915 109.042 95.915 109.042"/><path d="M409.964 170.51c0 146.446-44.829 292.906-164.452 292.906-119.595 0-164.437-146.46-164.437-292.906 0-146.46 73.629-151.524 164.438-151.524 90.836 0 164.45 5.064 164.45 151.524"/></g><path d="M382.984 241.621c0 146.446-110.564 207.574-137.473 207.574S108.04 388.068 108.04 241.621c0-146.46 274.944-146.46 274.944 0" fill="#c1694f"/><path d="M99.335 149.931C58.219 63.29 99.335 0 99.335 0s82.233 13.639 95.943 40.889C212.6 75.378 99.335 149.93 99.335 149.93" fill="#662113"/><g fill="#c1694f"><path d="M201.835 51.541C141.717 29.014 99.335 0 99.335 0S69.81 45.81 86.151 112.725c6.343 30.393 27.592 59.676 55.524 66.304 37.49 8.917 103.836-.698 103.836-56.363 0-38.329-15.273-60.472-43.676-71.125"/><path d="M289.174 51.541C349.29 29.014 391.659 0 391.659 0s29.525 45.81 13.199 112.725c-6.343 30.393-27.592 59.676-55.51 66.304-37.503 8.917-103.85-.698-103.85-56.363 0-38.329 15.274-60.472 43.676-71.125"/></g><g fill="#ffd983"><path d="M218.205 109.041c0 30.109-24.405 54.514-54.514 54.514s-54.527-24.405-54.527-54.514 24.42-54.514 54.527-54.514 54.514 24.407 54.514 54.514M381.804 109.041c0 30.109-24.405 54.514-54.514 54.514s-54.515-24.405-54.515-54.514 24.405-54.514 54.514-54.514 54.515 24.407 54.515 54.514"/></g><g fill="#292f33"><path d="M190.984 109.041c0 15.061-12.203 27.264-27.264 27.264-15.047 0-27.25-12.203-27.25-27.264 0-15.047 12.203-27.263 27.25-27.263 15.061 0 27.264 12.217 27.264 27.263M354.554 109.041c0 15.061-12.203 27.264-27.264 27.264s-27.264-12.203-27.264-27.264c0-15.047 12.203-27.263 27.264-27.263s27.264 12.217 27.264 27.263"/></g><path d="M286.4 170.382c0 33.878-40.889 47.702-40.889 47.702s-40.889-13.824-40.889-47.701 40.89-47.702 40.89-47.702 40.888 13.824 40.888 47.702" fill="#ffcc4d"/><path d="M286.4 170.382c0 33.878-40.889 47.702-40.889 47.702s-40.889-13.824-40.889-47.701c17.04 17.038 40.89 20.437 40.89 20.437s23.85-3.4 40.888-20.437" fill="#f4900c"/></svg>