<svg xmlns="http://www.w3.org/2000/svg" viewBox="0 0 511.999 511.999"><path d="M380.693 392.321c0 57.893-55.827 88.845-124.694 88.845s-124.693-30.952-124.693-88.845S187.133 287.497 256 287.497s124.693 46.931 124.693 104.824z" fill="#a16b4e"/><g opacity=".1"><path d="M256 430.018a7.5 7.5 0 0 1-7.5-7.5v-11.112a7.5 7.5 0 0 1 7.5-7.5 7.5 7.5 0 0 1 7.5 7.5v11.112a7.5 7.5 0 0 1-7.5 7.5zM221.795 413.72a7.5 7.5 0 0 1-7.5-7.5v-11.854a7.5 7.5 0 0 1 7.5-7.5 7.5 7.5 0 0 1 7.5 7.5v11.854a7.5 7.5 0 0 1-7.5 7.5zM290.205 413.72a7.5 7.5 0 0 1-7.5-7.5v-11.854a7.5 7.5 0 0 1 7.5-7.5 7.5 7.5 0 0 1 7.5 7.5v11.854a7.5 7.5 0 0 1-7.5 7.5z"/></g><g fill="#7d4e3e"><path d="M92.696 349.795c-9.268 25.465-12.388 98.266 13.077 107.535 25.465 9.268 69.871-48.506 79.139-73.971 9.268-25.465-3.861-53.622-29.327-62.89-25.464-9.269-53.62 3.861-62.889 29.326zM419.303 349.795c9.268 25.465 12.388 98.266-13.077 107.535-25.464 9.268-69.871-48.506-79.139-73.971-9.268-25.465 3.861-53.622 29.327-62.89 25.464-9.269 53.62 3.861 62.889 29.326z"/></g><path d="M356.412 320.468a49.495 49.495 0 0 0-6.487 2.911c-22.857-21.989-56.46-35.883-93.926-35.883s-71.069 13.894-93.926 35.883a49.495 49.495 0 0 0-6.487-2.911c-14.806-5.389-30.516-3.194-42.9 4.583C144.267 363.05 196.675 387.91 256 387.91s111.733-24.861 143.314-62.859c-12.385-7.777-28.095-9.972-42.902-4.583z" opacity=".15"/><g fill="#a16b4e"><ellipse cx="256.003" cy="193.251" rx="201.541" ry="169.429"/><ellipse cx="256.003" cy="189.72" rx="201.541" ry="169.429"/></g><path d="M390.525 67.101c29.968 29.574 48.064 67.909 48.064 109.803 0 93.573-90.234 169.429-201.544 169.429-51.701 0-98.848-16.373-134.525-43.277 36.967 36.482 92.004 59.627 153.479 59.627 111.31 0 201.544-75.856 201.544-169.429.001-50.111-25.885-95.133-67.018-126.153z" opacity=".1"/><path d="M365.63 156.199l92.098-117.13c8.392-10.673-1.167-25.995-14.443-23.15l-35.075 7.516a83.064 83.064 0 0 1-39.466-1.141l-43.751-12.058a76.831 76.831 0 0 0-59.77 8.085 18.008 18.008 0 0 1-18.448 0 76.819 76.819 0 0 0-59.77-8.085l-43.751 12.058a83.05 83.05 0 0 1-39.466 1.141l-35.074-7.516c-13.276-2.845-22.834 12.477-14.443 23.15l92.098 117.13H365.63z" fill="#fc8063"/><g fill="#fad97e"><circle cx="180.669" cy="156.199" r="75.334"/><circle cx="331.327" cy="156.199" r="75.334"/></g><path d="M245.774 174.54l-21.314 41.092a23.73 23.73 0 0 0 4.285 27.706l18.293 18.293c4.949 4.949 12.973 4.949 17.922 0l18.293-18.293a23.73 23.73 0 0 0 4.285-27.706l-21.314-41.092c-4.298-8.287-16.151-8.287-20.45 0z" opacity=".1"/><g fill="#fc8063"><path d="M245.774 160.402l-21.314 41.092a23.73 23.73 0 0 0 4.285 27.706l18.293 18.293c4.949 4.949 12.973 4.949 17.922 0l18.293-18.293a23.73 23.73 0 0 0 4.285-27.706l-21.314-41.092c-4.298-8.288-16.151-8.288-20.45 0zM210.629 504.5c-10.739 0-19.445-8.705-19.445-19.445v-26.728c0-10.739 8.705-19.445 19.445-19.445s19.445 8.705 19.445 19.445v26.728c0 10.74-8.707 19.445-19.445 19.445zM301.37 504.5c-10.739 0-19.445-8.705-19.445-19.445v-26.728c0-10.739 8.705-19.445 19.445-19.445s19.445 8.705 19.445 19.445v26.728c0 10.74-8.705 19.445-19.445 19.445z"/></g><path d="M308.337 171.179a7.5 7.5 0 0 0 7.5-7.5c0-8.541 6.949-15.491 15.492-15.491s15.492 6.949 15.492 15.491a7.5 7.5 0 0 0 7.5 7.5 7.5 7.5 0 0 0 7.5-7.5c0-16.814-13.679-30.492-30.493-30.492s-30.493 13.679-30.493 30.492a7.502 7.502 0 0 0 7.502 7.5zm156.706 22.075c0-37.107-13.299-72.371-38.514-102.372L437.601 76.8a7.5 7.5 0 0 0-11.792-9.272l-29.452 37.456c-15.181-19.235-38.678-31.618-65.028-31.618-21.738 0-42.274 8.36-57.827 23.542a82.802 82.802 0 0 0-17.503 24.857 82.802 82.802 0 0 0-17.503-24.857c-15.552-15.182-36.089-23.542-57.827-23.542-26.349 0-49.847 12.383-65.027 31.618L60.167 34.432c-2.82-3.587-1.047-7.059-.437-8.038.611-.977 2.952-4.093 7.412-3.142l35.074 7.517a90.96 90.96 0 0 0 43.03-1.244l43.751-12.058c18.129-4.997 37.787-2.337 53.936 7.296a25.483 25.483 0 0 0 26.133 0c16.149-9.633 35.809-12.291 53.935-7.296l43.751 12.058a90.948 90.948 0 0 0 43.03 1.244l35.074-7.516c4.459-.962 6.801 2.163 7.412 3.142.61.979 2.383 4.451-.438 8.038l-10.764 13.69a7.5 7.5 0 0 0 11.793 9.272l10.764-13.69c5.8-7.376 6.339-17.288 1.372-25.249-4.967-7.962-14.107-11.834-23.282-9.872L406.639 16.1a75.815 75.815 0 0 1-35.901-1.037l-43.75-12.059c-22.051-6.077-45.963-2.843-65.606 8.874a10.495 10.495 0 0 1-10.764 0C230.974.161 207.062-3.075 185.012 3.004l-43.75 12.058a75.858 75.858 0 0 1-35.902 1.037L70.284 8.583c-9.174-1.96-18.314 1.909-23.281 9.872-4.966 7.961-4.428 17.872 1.372 25.249L85.47 90.881c-25.215 30.003-38.515 65.265-38.515 102.371 0 47.484 21.892 92.049 61.644 125.494-10.51 6.618-18.608 16.55-22.951 28.483-4.476 12.299-7.307 33.142-7.212 53.099a7.5 7.5 0 0 0 7.499 7.465h.037a7.5 7.5 0 0 0 7.464-7.535c-.085-18.047 2.45-37.296 6.308-47.899 3.843-10.558 11.693-18.976 21.818-23.586 17.479 12.458 37.011 22.279 57.909 29.224 1.621 7.592 1.084 15.401-1.607 22.796-3.963 10.89-16.2 30.684-31.919 47.444-15.408 16.433-29.818 24.884-37.607 22.043-4.976-1.811-9.175-8.953-11.824-20.112a7.5 7.5 0 0 0-14.595 3.464c3.964 16.701 11.127 27.044 21.289 30.744 2.754 1.002 5.573 1.459 8.43 1.459 11.496 0 23.552-7.403 33.99-16.445 9.781 10.695 22.533 19.398 38.055 25.96v9.704c0 14.858 12.088 26.944 26.945 26.944 13.9 0 25.373-10.58 26.795-24.108 6.091.503 12.305.775 18.576.775s12.484-.272 18.576-.775c1.422 13.529 12.896 24.108 26.795 24.108 14.858 0 26.945-12.088 26.945-26.944v-9.704c15.522-6.563 28.274-15.266 38.054-25.959 10.438 9.042 22.493 16.445 33.99 16.444 2.855 0 5.678-.457 8.431-1.459 18.124-6.596 23.32-33.186 24.487-54.328 1.236-22.385-1.612-48.219-6.927-62.82-4.343-11.933-12.442-21.864-22.952-28.482 39.754-33.444 61.645-78.008 61.645-125.492zm-181.063-85.61c12.734-12.431 29.55-19.275 47.349-19.275 37.401 0 67.83 30.429 67.83 67.83s-30.428 67.83-67.83 67.83c-11.926 0-23.486-3.089-33.719-8.968a31.2 31.2 0 0 0-3.413-17.02l-21.314-41.092a18.956 18.956 0 0 0-8.908-8.51c1.757-15.476 8.729-29.787 20.005-40.795zM256 161.686c.734 0 2.552.212 3.567 2.169l21.314 41.092a16.188 16.188 0 0 1 1.355 11.376 7.384 7.384 0 0 0-.256.922 16.227 16.227 0 0 1-4.03 6.651l-18.293 18.294a5.137 5.137 0 0 1-3.657 1.515 5.135 5.135 0 0 1-3.657-1.516l-18.293-18.293a16.226 16.226 0 0 1-4.028-6.647 7.477 7.477 0 0 0-.257-.928 16.184 16.184 0 0 1 1.355-11.374l21.314-41.092c1.014-1.957 2.831-2.169 3.566-2.169zm-75.33-73.317c17.799 0 34.615 6.845 47.348 19.275 11.277 11.008 18.249 25.319 20.005 40.793a18.958 18.958 0 0 0-8.907 8.51l-21.314 41.092a31.189 31.189 0 0 0-3.413 17.02c-10.233 5.879-21.793 8.968-33.719 8.968-37.401 0-67.83-30.429-67.83-67.83s30.429-67.828 67.83-67.828zm41.903 396.687c0 6.586-5.358 11.944-11.945 11.944s-11.945-5.357-11.945-11.944v-26.729c0-6.586 5.358-11.945 11.945-11.945s11.945 5.358 11.945 11.945v26.729zm90.742 0c0 6.586-5.358 11.944-11.945 11.944s-11.945-5.357-11.945-11.944v-26.729c0-6.586 5.358-11.945 11.945-11.945s11.945 5.358 11.945 11.945v26.729zm15.001-26.169v-.56c0-14.858-12.088-26.945-26.945-26.945s-26.945 12.088-26.945 26.945v14.536c-6.023.529-12.193.804-18.426.804s-12.403-.274-18.426-.804v-14.536c0-14.858-12.088-26.945-26.945-26.945-14.858 0-26.945 12.088-26.945 26.945v.56c-11.007-5.372-20.128-12.035-27.253-19.904.152-.161.307-.322.458-.483 15.336-16.353 29.759-37.973 35.073-52.576 2.753-7.565 3.844-15.449 3.284-23.287 19.45 4.971 39.871 7.546 60.754 7.546s41.305-2.576 60.754-7.546c-.56 7.839.531 15.723 3.284 23.289 5.315 14.603 19.738 36.223 35.073 52.576l.457.483c-7.124 7.868-16.246 14.53-27.252 19.902zm83.939-106.527c3.963 10.89 7.313 33.917 6.045 56.862-1.242 22.491-6.851 38.225-14.64 41.059-7.785 2.838-22.199-5.611-37.607-22.042-15.719-16.763-27.956-36.557-31.919-47.445-2.692-7.396-3.228-15.205-1.607-22.797 20.898-6.944 40.43-16.766 57.909-29.223 10.127 4.61 17.976 13.028 21.819 23.586zM256 355.182c-106.996 0-194.043-72.641-194.043-161.929 0-32.527 11.385-63.569 33.004-90.303l12.086 15.37a82.3 82.3 0 0 0-9.205 37.878c0 45.673 37.157 82.83 82.83 82.83 13.602 0 26.816-3.297 38.69-9.585a31.523 31.523 0 0 0 4.083 5.059l18.292 18.292a20.038 20.038 0 0 0 14.265 5.909 20.047 20.047 0 0 0 14.265-5.908l18.292-18.293a31.475 31.475 0 0 0 4.083-5.06c11.873 6.287 25.087 9.585 38.69 9.585 45.672 0 82.83-37.157 82.83-82.83a82.303 82.303 0 0 0-9.205-37.878l12.086-15.37c21.619 26.733 33.004 57.775 33.004 90.303-.005 89.289-87.051 161.93-194.047 161.93zm-98.322-184.003a7.5 7.5 0 0 0 7.5-7.5c0-8.541 6.949-15.491 15.492-15.491 8.542 0 15.492 6.949 15.492 15.491a7.5 7.5 0 0 0 7.5 7.5 7.5 7.5 0 0 0 7.5-7.5c0-16.814-13.679-30.492-30.493-30.492s-30.493 13.679-30.493 30.492a7.502 7.502 0 0 0 7.502 7.5z"/></svg>