<svg xmlns="http://www.w3.org/2000/svg" viewBox="0 0 512 512"><path d="M512 263.5c0 124.2-115.3 225-256 225S0 387.7 0 263.5c0-41.7 12.9-82.2 37.5-117.601L125.2 70.3c39.6-21 85.199-31.201 130.8-31.201S347.199 49.3 386.8 70.3l95.2 88.2c19.2 32.399 30 68.099 30 105z" fill="#995d5c"/><path d="M512 263.5c0 124.2-115.3 225-256 225V39.099c45.601 0 91.199 10.201 130.8 31.201l95.2 88.2c19.2 32.399 30 68.099 30 105z" fill="#994d4d"/><path d="M339.101 345.399l-69.901 105c-2.701 5.4-7.8 8.101-13.2 8.101-5.099 0-10.201-2.701-13.2-8.101l-69.901-105 83.101-84 83.101 84z" fill="#fcb33b"/><path d="M339.101 345.399l-69.901 105c-2.701 5.4-7.8 8.101-13.2 8.101V261.4l83.101 83.999z" fill="#f69838"/><path d="M346 128.5c-35.806 0-67.994 15.769-90 40.721-22.006-24.952-54.194-40.721-90-40.721-66.168 0-120 53.832-120 120s53.832 120 120 120c35.806 0 67.994-15.769 90-40.721 22.006 24.952 54.194 40.721 90 40.721 66.168 0 120-53.832 120-120s-53.832-120-120-120z" fill="#ffeacc"/><path d="M346 368.5c66.168 0 120-53.832 120-120s-53.832-120-120-120c-35.806 0-67.994 15.769-90 40.721v158.558c22.006 24.952 54.194 40.721 90 40.721z" fill="#ffdbb2"/><path d="M512 38.92V82.5c0 58.542-47.458 106-106 106h-65.7l-41.573 41.722c-23.419 23.503-61.467 23.537-84.928.076L172 188.5h-65.7C48 188.5.3 140.8.3 82.5V38.899c0-7.1 4.775-13.496 11.706-15.035C21.436 21.77 30.3 28.978 30.3 38.5c0 16.5 13.2 30 30 30H136c36 0 69.901 14.099 95.7 39.6 10.201 10.199 17.999 22.2 24.3 34.799 6.599-12.599 14.399-24.6 24.6-34.799 25.499-25.501 59.4-39.6 95.7-39.6h75.262c16.824 0 29.948-13.654 30.444-30.471.238-8.055 6.56-14.342 14.63-14.525C505.128 23.311 512 30.428 512 38.92z" fill="#cca394"/><path d="M298.727 230.222L340.3 188.5H406c58.542 0 106-47.458 106-106V38.92c0-8.493-6.872-15.609-15.363-15.416-8.071.183-14.392 6.47-14.63 14.525-.497 16.817-13.62 30.471-30.444 30.471H376.3c-36.301 0-70.201 14.099-95.7 39.6-10.201 10.199-18.001 22.2-24.6 34.799v104.965c15.465.058 30.946-5.82 42.727-17.642z" fill="#cc9480"/><path d="M166 338.5c-49.706 0-90-40.294-90-90s40.294-90 90-90 90 40.294 90 90-40.294 90-90 90z" fill="#ffde33"/><path d="M166 293.5c-24.853 0-45-20.147-45-45s20.147-45 45-45 45 20.147 45 45-20.147 45-45 45z" fill="#5c5f66"/><path d="M346 338.5c-49.706 0-90-40.294-90-90s40.294-90 90-90 90 40.294 90 90-40.294 90-90 90z" fill="#ffbc33"/><path d="M346 293.5c-24.853 0-45-20.147-45-45s20.147-45 45-45 45 20.147 45 45-20.147 45-45 45z" fill="#53565c"/><g fill="#ffeacc"><circle cx="136" cy="218.5" r="15"/><circle cx="316" cy="218.5" r="15"/></g></svg>