<svg xmlns="http://www.w3.org/2000/svg" viewBox="0 0 512 512"><path d="M255.843 512c-.32-.229-.64-.469-.949-.698C40.623 352.927 99.161 161.257 99.161 161.257l27.015-71.588c23.23-61.557 79.331-91.42 134.448-89.59 51.938 1.727 103.018 31.59 124.898 89.59l27.015 71.588c.001 0 58.71 192.242-156.694 350.743z" fill="#cebe9b"/><path fill="#fed159" d="M298.322 171.516v71.085l-42.479 42.467-42.467-42.467 4.987-71.085z"/><path d="M379.051 108.895c20.155 14.131 33.34 37.555 33.34 64.06 0 43.176-34.989 78.19-78.19 78.19s-78.19-35.016-78.19-78.19" fill="#f2f2f2"/><path fill="#eab94e" d="M255.843 171.516v113.552l-42.467-42.467 4.987-71.085z"/><path d="M130.271 262.445c10.134 105.912 70.695 191.91 124.623 248.858C40.623 352.927 99.161 161.257 99.161 161.257l27.015-71.588c23.23-61.557 79.331-91.42 134.448-89.59l.023.011c0 .001-149.248 65.069-130.376 262.355z" fill="#b5a483"/><circle cx="334.204" cy="172.947" r="21.239" fill="#4d4d4d"/><path d="M132.941 108.895c-20.155 14.131-33.34 37.555-33.34 64.06 0 43.176 35.016 78.19 78.19 78.19 43.202 0 78.218-35.016 78.218-78.19" fill="#f2f2f2"/><g fill="#b5a483"><path d="M334.2 257.436c-46.583 0-84.48-37.898-84.48-84.481a6.29 6.29 0 1 1 12.582 0c0 39.646 32.254 71.9 71.899 71.9 39.646 0 71.9-32.254 71.9-71.9 0-23.427-11.462-45.449-30.661-58.909a6.292 6.292 0 0 1-1.541-8.762 6.288 6.288 0 0 1 8.762-1.539c22.555 15.812 36.019 41.685 36.019 69.211.001 46.582-37.896 84.48-84.48 84.48z"/><path d="M177.791 257.436c-46.584 0-84.481-37.898-84.481-84.481 0-27.524 13.465-53.398 36.02-69.211a6.29 6.29 0 1 1 7.221 10.301c-19.199 13.461-30.662 35.483-30.662 58.909 0 39.646 32.254 71.9 71.9 71.9 39.662 0 71.928-32.254 71.928-71.9a6.29 6.29 0 1 1 12.582 0c.002 46.584-37.909 84.482-84.508 84.482z"/></g><path d="M415.101 272.967c-11.186 67.31-48.644 155.196-154.51 235.053a193.367 193.367 0 0 1-5.341-45.235c0-95.195 69.071-174.274 159.851-189.818z" fill="#cc9758"/><circle cx="177.499" cy="172.947" r="21.239" fill="#4d4d4d"/><g fill="#cc9758"><path d="M255.249 462.785c0 14.995-1.716 29.589-4.952 43.6-.103.423-.194.835-.297 1.247-.034.126-.057.263-.092.389-105.866-79.857-143.324-167.743-154.51-235.053.206.034.412.069.618.114a190.555 190.555 0 0 1 36.966 10.362c71.587 28.091 122.267 97.802 122.267 179.341zM256 172.943v-13.054c0-44.729-31.542-83.253-75.392-92.079A221.337 221.337 0 0 1 67.774 7.334a188.734 188.734 0 0 0 102.113 124.699L256 172.943zM256 172.943v-13.054c0-44.729 31.542-83.253 75.392-92.079A221.337 221.337 0 0 0 444.226 7.334a188.734 188.734 0 0 1-102.113 124.699L256 172.943z"/></g><path d="M254.894 511.304c-1.647-1.224-3.283-2.436-4.895-3.671-105.42-79.708-142.786-167.365-153.984-234.549a190.555 190.555 0 0 1 36.966 10.362c15.029 93.365 68.225 169.939 117.315 222.94a527.636 527.636 0 0 0 4.598 4.918z" fill="#b78349"/><g fill="#f2f2f2"><circle cx="196.531" cy="165.421" r="11.438"/><circle cx="351.681" cy="165.421" r="11.438"/></g></svg>