<svg xmlns="http://www.w3.org/2000/svg" viewBox="0 0 512 512"><path d="M369.853 376.232c0-62.879-50.974-113.853-113.853-113.853s-113.853 50.974-113.853 113.853S180.947 482.427 256 482.427s113.853-43.316 113.853-106.195z" fill="#a4a8ab"/><ellipse cx="255.998" cy="350.707" rx="71.635" ry="74.37" fill="#f8e9b4"/><path d="M347.395 308.332c-24.268 3.088-42.124 24.692-40.273 49.37l3.768 50.254c1.501 20.017 10.414 37.7 23.841 50.583 23.267-18.791 35.122-47.559 35.122-82.306 0-25.448-8.35-48.944-22.458-67.901zM164.606 308.332c24.268 3.088 42.124 24.692 40.273 49.37l-3.768 50.254c-1.501 20.017-10.414 37.7-23.841 50.583-23.267-18.791-35.122-47.559-35.122-82.306.001-25.448 8.351-48.944 22.458-67.901z" opacity=".1"/><g opacity=".1"><path d="M256.001 389.494a8.139 8.139 0 0 1-8.14-8.14v-14.957c0-4.497 3.644-8.14 8.14-8.14s8.14 3.644 8.14 8.14v14.957a8.139 8.139 0 0 1-8.14 8.14zM229.416 397.939a8.139 8.139 0 0 1-8.14-8.14v-14.955a8.14 8.14 0 0 1 8.14-8.14 8.14 8.14 0 0 1 8.14 8.14v14.955a8.139 8.139 0 0 1-8.14 8.14zM282.586 397.939a8.139 8.139 0 0 1-8.14-8.14v-14.955a8.14 8.14 0 0 1 16.28 0v14.955a8.14 8.14 0 0 1-8.14 8.14z"/></g><path d="M256.001 262.379c-47.868 0-88.831 29.544-105.663 71.391 30.411 13.531 66.693 20.421 105.663 20.421s75.253-6.889 105.664-20.421c-16.833-41.846-57.796-71.391-105.664-71.391z" opacity=".1"/><g fill="#4a5058"><path d="M106.216 463.398c-7.779-1.435-12.921-8.903-11.487-16.682l20.735-112.421c4.637-25.137 28.773-41.757 53.911-37.121 25.137 4.637 41.757 28.773 37.121 53.911l-9.141 49.559c-7.838 42.495-48.642 70.591-91.139 62.754zM405.786 463.398c7.779-1.435 12.921-8.903 11.487-16.682l-20.735-112.421c-4.637-25.137-28.773-41.757-53.911-37.121-25.137 4.637-41.757 28.773-37.121 53.911l9.141 49.559c7.838 42.495 48.642 70.591 91.139 62.754z"/></g><path d="M342.627 297.173c-24.858 4.585-41.372 28.24-37.253 53.074 32.307-5.367 61.333-16.187 84.762-32.303-9.814-15.498-28.366-24.301-47.509-20.771zM169.375 297.173c-19.143-3.531-37.696 5.274-47.508 20.771 23.429 16.115 52.453 26.936 84.762 32.303 4.119-24.833-12.395-48.489-37.254-53.074z" opacity=".15"/><path d="M450.189 179.803c0-99.397-86.941-145.608-194.187-145.608S61.813 80.406 61.813 179.803 148.754 331.324 256 331.324s194.189-52.125 194.189-151.521z" fill="#a4a8ab"/><g fill="#4a5058"><path d="M182.195 211.77a8.139 8.139 0 0 1-8.14-8.14c0-1.772-1.441-3.214-3.214-3.214s-3.214 1.441-3.214 3.214a8.139 8.139 0 0 1-8.14 8.14 8.139 8.139 0 0 1-8.14-8.14c0-10.748 8.746-19.494 19.494-19.494 10.749 0 19.494 8.746 19.494 19.494a8.138 8.138 0 0 1-8.14 8.14zM352.515 211.77a8.139 8.139 0 0 1-8.14-8.14 3.217 3.217 0 0 0-3.214-3.214 3.217 3.217 0 0 0-3.214 3.214 8.139 8.139 0 0 1-8.14 8.14 8.139 8.139 0 0 1-8.14-8.14c0-10.748 8.746-19.494 19.494-19.494 10.749 0 19.494 8.746 19.494 19.494a8.139 8.139 0 0 1-8.14 8.14z"/></g><path d="M330.146 42.617h-10.879c-34.941 0-63.267 28.325-63.267 63.266 0-34.94-28.325-63.266-63.266-63.266h-10.879C117.53 58.507 70.614 97.17 62.931 160.893a69.078 69.078 0 0 0 12.68 1.187h87.845a93.886 93.886 0 0 1 47.821 13.093l27.818 16.466a33.184 33.184 0 0 0 33.808 0l27.817-16.466a93.88 93.88 0 0 1 47.823-13.093h87.845c4.335 0 8.569-.42 12.68-1.187-7.679-63.723-54.596-102.386-118.922-118.276z" opacity=".1"/><path d="M483.566 2.011a192.315 192.315 0 0 1-97.964 26.822h-66.335c-34.94 0-63.267 28.325-63.267 63.266 0-34.94-28.325-63.266-63.266-63.266H126.4A192.315 192.315 0 0 1 28.436 2.011c-9.508-5.629-21.53 1.225-21.53 12.275v65.305c0 37.945 30.761 68.706 68.706 68.706h87.845a93.876 93.876 0 0 1 47.821 13.093l27.818 16.467a33.187 33.187 0 0 0 33.807 0l27.817-16.466a93.88 93.88 0 0 1 47.823-13.093h87.845c37.945 0 68.706-30.761 68.706-68.706V14.286c.001-11.049-12.02-17.904-21.528-12.275z" fill="#f8e9b4"/><path d="M24.527 76.405V5.655c0-1.783.294-3.462.821-5.014C16.517-2.111 6.906 4.406 6.906 14.286v65.305c0 37.945 30.761 68.706 68.706 68.706h4.05c-31.749-8.502-55.135-37.46-55.135-71.892zM240.552 186.867l-12.203 7.948c-7.07 4.605-9.104 15.848-4.283 23.672l20.246 32.861c5.307 8.614 15.88 8.614 21.187 0l20.246-32.861c4.821-7.824 2.787-19.067-4.283-23.672l-12.203-7.948c-8.972-5.843-19.734-5.843-28.707 0z" opacity=".1"/><g fill="#f4b759"><path d="M240.269 182.713l-13.375 7.122c-7.749 4.126-9.979 14.199-4.694 21.21l22.191 29.443c5.817 7.718 17.405 7.718 23.222 0l22.191-29.443c5.284-7.01 3.054-17.084-4.694-21.21l-13.375-7.122a33.474 33.474 0 0 0-31.466 0zM219.231 512c-9.623 0-17.424-7.801-17.424-17.424v-29.611c0-9.623 7.801-17.424 17.424-17.424s17.424 7.801 17.424 17.424v29.611c0 9.622-7.802 17.424-17.424 17.424zM292.771 512c-9.623 0-17.424-7.801-17.424-17.424v-29.611c0-9.623 7.801-17.424 17.424-17.424s17.424 7.801 17.424 17.424v29.611c0 9.622-7.801 17.424-17.424 17.424z"/></g></svg>