<svg xmlns="http://www.w3.org/2000/svg" viewBox="0 0 511.999 511.999"><path d="M473.684 164.029C495.216 105.617 504.447 27.11 504 28.005c-20.546 41.092-44.391 59.108-69.415 92.145l-2.57-1.932C391.692 86.921 333.659 68.006 256 68.006c-77.651 0-135.68 18.911-176.003 50.202l-2.71 1.768C52.309 87.045 28.512 69.026 8 28.005c-.447-.895 8.781 77.59 30.307 135.998h-.078C17.753 196.333 8 234.767 8 276.004c0 114.876 111.033 208 247.999 208s247.999-93.124 247.999-208c0-41.225-9.748-79.651-30.212-111.976h-.103v.001z" fill="#9f8976"/><path d="M473.684 164.029C495.216 105.617 504.447 27.11 504 28.005c-20.546 41.092-44.391 59.108-69.415 92.145l-2.57-1.932C391.692 86.921 333.659 68.006 256 68.006c-77.651 0-135.68 18.911-176.003 50.202l-2.71 1.768C52.309 87.045 28.512 69.026 8 28.005c-.447-.895 8.781 77.59 30.307 135.998h-.078C17.753 196.333 8 234.767 8 276.004c0 114.876 111.033 208 247.999 208s247.999-93.124 247.999-208c0-41.225-9.748-79.651-30.212-111.976h-.103v.001z" fill="#9f8976"/><path d="M307.634 314.004H204.962L25.283 347.006c25.669 88.005 111.23 88.005 136.897 88.005 25.669 0 68.448 40.002 94.117 40.002 25.669 0 68.448-40.002 94.117-40.002 25.668 0 111.229 0 136.897-88.005l-179.677-33.002z" fill="#ffebd2"/><path d="M139.992 239.999L160.29 368.01c47.799-15.934 74.444 24.543 86.956 58.238 3.083 8.303 15.016 8.303 18.099 0 12.513-33.694 39.157-74.171 86.956-58.238l20.704-128.011c-65.981 85.45-171.026 87.935-233.013 0z" fill="#cfbaa4"/><path d="M280.298 379.008c0-13.256-10.746-24.001-24.001-24.001-13.256 0-24.001 10.746-24.001 24.001 0 0 14.001 80.005 24.001 80.005 10 0 24.001-80.005 24.001-80.005z" fill="#464655"/><g fill="#dc9b5a"><path d="M461.91 234.676c-7.823-34.34-25.342-62.98-47.323-81.684-2.758-2.348-14.143 11.104-16.323 22.004-10.158 50.789-58.926 115.006-91.261 150.008 0 0 24.146 34.776 35.002 46.003 14.141 14.623 35.58 14.17 54.734 9.806 51.698-11.779 80.876-77.207 65.171-146.137zM110.247 174.996c-3.389-9.485-10.532-23.457-12.257-21.988-21.973 18.705-39.484 47.337-47.307 81.668-15.705 68.93 13.473 134.358 65.171 146.137 19.155 4.364 37.546 4.364 52.141-9.806 12.771-12.399 38.002-44.003 38.002-44.003-34.67-38.669-78.005-102.339-95.75-152.008z"/></g><g fill="#ffce56"><path d="M376.304 344.009c26.512 0 48.003-21.491 48.003-48.003s-21.491-48.003-48.003-48.003c-3.833 0-7.556.462-11.13 1.311-11.423 18.181-24.337 35.656-36.684 50.834 2.102 24.569 22.699 43.861 47.814 43.861zM88.286 296.006c0 26.512 21.491 48.003 48.003 48.003 24.949 0 45.445-19.034 47.776-43.371a633.842 633.842 0 0 1-35.876-51.147 48.077 48.077 0 0 0-11.9-1.488c-26.511 0-48.003 21.492-48.003 48.003z"/></g><g fill="#464655"><path d="M393.716 290.717c1.096 11.068-8.129 20.294-19.198 19.197-8.19-.811-14.816-7.436-15.627-15.627-1.096-11.068 8.129-20.294 19.198-19.197 8.191.812 14.816 7.437 15.627 15.627zM153.702 290.217c1.096 11.068-8.129 20.294-19.198 19.197-8.19-.811-14.816-7.436-15.627-15.627-1.096-11.068 8.129-20.294 19.198-19.197 8.191.811 14.816 7.437 15.627 15.627z"/></g><g fill="#726765"><path d="M8.282 31.99C7.63 30.827 19.235 171.96 64.285 208c22.495 17.996 52.581 28.402 87.411 39.755-18.738-24.375-32.142-54.464-44.706-79.758C71.979 97.51 43.28 94.504 8.282 31.99zM503.335 31.706c.645-1.168-10.151 140.03-54.994 176.328-22.392 18.125-52.418 28.703-87.182 40.255 18.598-24.481 31.83-54.647 44.249-80.013 34.607-70.687 63.288-73.857 97.927-136.57z"/></g><path d="M482.579 163.035c5.85-16.479 11.277-35.783 16.253-57.852 4.819-21.37 8.132-40.726 10.064-53.201 3.746-24.196 3.366-25.069 2.448-27.177a8.008 8.008 0 0 0-7.126-4.807 8.032 8.032 0 0 0-7.374 4.427c-13.14 26.28-27.832 42.96-43.385 60.618-6.546 7.433-13.364 15.176-20.348 23.974C389.095 76.493 329.544 60.004 256 60.004S122.905 76.493 78.889 109.019c-6.984-8.8-13.802-16.542-20.348-23.975-15.553-17.658-30.245-34.338-43.385-60.618-1.39-2.778-4.282-4.494-7.374-4.427a8.008 8.008 0 0 0-7.126 4.807c-.917 2.107-1.297 2.979 2.448 27.177 1.931 12.476 5.244 31.831 10.064 53.201 4.976 22.067 10.404 41.373 16.253 57.851C9.897 195.305 0 233.288 0 276.005 0 333.97 26.812 388.38 75.497 429.212 123.776 469.703 187.88 492.004 256 492.004s132.224-22.3 180.503-62.792C485.188 388.38 512 333.969 512 276.005c0-42.717-9.897-80.699-29.421-112.97zm-17.113-67.414c8.635-9.804 17.015-19.318 25.083-30.3C482.771 109.289 466.69 178.73 442 206.712a8.002 8.002 0 0 0 11.999 10.587c7.435-8.426 14.441-20.133 20.99-35.017 13.948 27.309 21.01 58.755 21.01 93.724 0 44.868-17.824 86.331-47.878 119.735a8.019 8.019 0 0 0-1.351.985c-13.056 11.813-25.251 17.05-37.261 16.013-24.328-2.102-46.295-30.231-65.675-55.05-9.288-11.894-18.06-23.126-26.913-31.497-.062-.059-.128-.107-.19-.163 2.506-3.244 5.357-6.677 8.501-10.384 9.111 19.554 28.882 32.361 50.769 32.361 30.879 0 56-25.122 56-56 0-28.926-22.044-52.797-50.214-55.702 5.908-11.034 11.818-23.345 17.599-37.22 22.485-53.969 44.647-79.131 66.08-103.463zM373.195 251.49a7.959 7.959 0 0 0 2.805.516c22.056 0 39.999 17.943 39.999 39.999s-17.943 40-39.999 40c-16.926 0-32.086-10.716-37.725-26.664a7.942 7.942 0 0 0-1.813-2.906c11.018-13.108 23.722-29.17 36.733-50.945zM37.011 182.282c6.549 14.884 13.556 26.592 20.99 35.017A8.002 8.002 0 0 0 70 206.712c-24.689-27.981-40.77-97.423-48.549-141.391 8.067 10.981 16.449 20.496 25.084 30.3 21.432 24.332 43.596 49.494 66.081 103.461 5.781 13.875 11.691 26.187 17.599 37.22-28.17 2.905-50.214 26.777-50.214 55.702 0 30.879 25.122 56 56 56 21.887 0 41.659-12.808 50.769-32.361 3.049 3.596 5.818 6.931 8.27 10.09a7.926 7.926 0 0 0-.535.457c-8.854 8.37-17.625 19.604-26.913 31.497-19.38 24.819-41.348 52.948-65.675 55.05-11.81 1.015-23.779-4.034-36.576-15.411-30.931-33.676-49.34-75.739-49.34-121.323 0-34.968 7.062-66.413 21.01-93.721zm101.793 69.208c13.011 21.775 25.715 37.836 36.732 50.943a7.952 7.952 0 0 0-1.812 2.907c-5.638 15.948-20.798 26.664-37.725 26.664-22.056 0-39.999-17.943-39.999-39.999s17.943-39.999 39.999-39.999a7.977 7.977 0 0 0 2.805-.516zM101.34 428.806c.651-.031 1.303-.07 1.953-.127 31.273-2.701 55.518-33.75 76.91-61.144 8.323-10.659 16.214-20.763 23.722-28.196 2.645 5.358 4.074 10.692 4.074 16.664a8 8 0 0 0 16 0c0-21.435-12.279-35.805-29.274-55.694-18.615-21.785-44.108-51.621-67.341-107.381-12.964-31.112-26.105-53.374-38.85-71.142 41.192-30.38 97.499-45.78 167.464-45.78 69.964 0 126.273 15.401 167.465 45.78-12.746 17.768-25.887 40.029-38.85 71.142-23.233 55.76-48.727 85.596-67.341 107.381-16.995 19.89-29.274 34.26-29.274 55.694a8 8 0 0 0 16 0c0-5.831 1.351-11.053 3.876-16.282 7.395 7.396 15.161 17.334 23.345 27.815 21.391 27.394 45.637 58.442 76.909 61.144.833.072 1.667.117 2.5.146-41.797 29.416-95.768 47.178-154.631 47.178-58.874 0-112.855-17.77-154.657-47.198z"/><path d="M255.999 348.003c-17.645 0-32.001 14.355-32.001 32.001 0 .462.04.924.12 1.379.036.202 3.596 20.468 8.347 40.469 2.828 11.909 5.534 21.456 8.043 28.379 3.346 9.231 7.539 17.773 15.49 17.773 7.951 0 12.144-8.543 15.49-17.773 2.509-6.922 5.215-16.47 8.043-28.379 4.75-20.001 8.311-40.267 8.346-40.469.08-.455.12-.917.12-1.379.003-17.645-14.352-32.001-31.998-32.001zm.032 98.076c-2.108-5.579-5.14-15.357-9.029-32.354-3.622-15.833-6.367-30.889-6.988-34.356.334-8.529 7.377-15.364 15.987-15.364 8.612 0 15.656 6.84 15.987 15.372-4.41 25.008-11.013 53.347-15.957 66.702zM136 316.005c13.234 0 24-10.767 24-24s-10.767-24-24-24c-13.234 0-24 10.767-24 24s10.766 24 24 24zm0-32c4.411 0 7.999 3.588 7.999 7.999s-3.588 7.999-7.999 7.999-7.999-3.588-7.999-7.999 3.588-7.999 7.999-7.999zM376 316.005c13.234 0 24-10.767 24-24s-10.767-24-24-24-24 10.767-24 24 10.766 24 24 24zm0-32c4.411 0 7.999 3.588 7.999 7.999s-3.588 7.999-7.999 7.999-8-3.587-8-7.999 3.589-7.999 8-7.999z"/></svg>